<svg width="115" height="104" viewBox="0 0 115 104" fill="none" xmlns="http://www.w3.org/2000/svg">
<circle cx="6.89157" cy="97.1084" r="6.89157" transform="rotate(-90 6.89157 97.1084)" fill="#E3E3E3"/>
<circle cx="6.89157" cy="67.0362" r="6.89157" transform="rotate(-90 6.89157 67.0362)" fill="#E3E3E3"/>
<circle cx="6.89157" cy="36.9634" r="6.89157" transform="rotate(-90 6.89157 36.9634)" fill="#E3E3E3"/>
<circle cx="6.89157" cy="6.89163" r="6.89157" transform="rotate(-90 6.89157 6.89163)" fill="#E3E3E3"/>
<circle cx="31.9516" cy="97.1084" r="6.89157" transform="rotate(-90 31.9516 97.1084)" fill="#E3E3E3"/>
<circle cx="31.9516" cy="67.0362" r="6.89157" transform="rotate(-90 31.9516 67.0362)" fill="#E3E3E3"/>
<circle cx="31.9516" cy="36.9634" r="6.89157" transform="rotate(-90 31.9516 36.9634)" fill="#E3E3E3"/>
<circle cx="31.9516" cy="6.89163" r="6.89157" transform="rotate(-90 31.9516 6.89163)" fill="#E3E3E3"/>
<circle cx="57.0122" cy="97.1084" r="6.89157" transform="rotate(-90 57.0122 97.1084)" fill="#E3E3E3"/>
<circle cx="57.0122" cy="67.0362" r="6.89157" transform="rotate(-90 57.0122 67.0362)" fill="#E3E3E3"/>
<circle cx="57.0122" cy="36.9634" r="6.89157" transform="rotate(-90 57.0122 36.9634)" fill="#E3E3E3"/>
<circle cx="57.0122" cy="6.89163" r="6.89157" transform="rotate(-90 57.0122 6.89163)" fill="#E3E3E3"/>
<circle cx="82.0722" cy="97.1084" r="6.89157" transform="rotate(-90 82.0722 97.1084)" fill="#E3E3E3"/>
<circle cx="82.0722" cy="67.0362" r="6.89157" transform="rotate(-90 82.0722 67.0362)" fill="#E3E3E3"/>
<circle cx="82.0722" cy="36.9634" r="6.89157" transform="rotate(-90 82.0722 36.9634)" fill="#E3E3E3"/>
<circle cx="82.0722" cy="6.89163" r="6.89157" transform="rotate(-90 82.0722 6.89163)" fill="#E3E3E3"/>
<circle cx="107.132" cy="97.1084" r="6.89157" transform="rotate(-90 107.132 97.1084)" fill="#E3E3E3"/>
<circle cx="107.132" cy="67.0362" r="6.89157" transform="rotate(-90 107.132 67.0362)" fill="#E3E3E3"/>
<circle cx="107.132" cy="36.9634" r="6.89157" transform="rotate(-90 107.132 36.9634)" fill="#E3E3E3"/>
<circle cx="107.132" cy="6.89163" r="6.89157" transform="rotate(-90 107.132 6.89163)" fill="#E3E3E3"/>
</svg>
