<svg width="92" height="92" viewBox="0 0 92 92" fill="none" xmlns="http://www.w3.org/2000/svg">
<g clip-path="url(#clip0)">
<path d="M42.7531 6.28906C23.6069 6.28906 8.10559 21.7467 8.10559 40.8929V46.1435C5.94234 47.9033 4.55957 50.462 4.55957 53.4149C4.55957 57.5195 7.18834 60.8989 10.9321 62.346C12.4033 78.8439 26.0495 91.6532 42.7531 91.6532C52.0636 91.6532 60.3257 87.5831 66.1361 81.1968C64.2223 81.4462 62.6005 81.7635 60.2119 81.8692C55.382 85.6876 49.3762 88.0635 42.7531 88.0635C27.5909 88.0635 15.1792 76.1795 14.3436 61.0448L14.2988 59.7425L12.9976 59.4287C10.1447 58.7356 8.15041 56.2816 8.15041 53.4149C8.15041 51.839 8.83548 50.4758 9.85503 49.3757L14.2539 53.2356V44.3033L54.1981 25.364C54.6211 25.4203 54.9992 25.5203 55.4096 25.5881L70.7592 44.3033V51.7539L73.1833 50.3183V47.3114C73.1833 44.6585 74.9684 42.463 77.3569 41.6561V40.8929C77.3569 24.5973 65.7706 6.28906 42.7531 6.28906ZM73.1833 58.9356C72.9063 59.0414 72.7603 59.3126 72.4649 59.3839L71.1638 59.6977L71.1189 61.0448C70.858 65.7702 69.3661 70.0978 67.1246 73.9254C67.8327 73.8036 69.1155 73.8036 69.6821 73.6565C70.4408 73.4588 70.9672 73.1473 71.6121 72.8932C73.027 69.7817 74.0627 66.4449 74.4397 62.8851C73.719 61.8897 73.1833 60.7437 73.1833 59.4287V58.9356ZM69.6373 76.5289C68.5247 76.7875 66.5902 76.8485 65.1039 77.022C64.6809 77.5692 64.2189 78.0795 63.7579 78.5933C65.5016 78.4266 67.3396 78.2772 68.6948 78.0094C69.0304 77.5301 69.3281 77.0278 69.6373 76.5289Z" fill="#5FC7F2"/>
<path d="M53.0078 53.3862C53.0078 51.1173 54.8469 49.2793 57.1159 49.2793C59.3837 49.2793 61.2228 51.1173 61.2228 53.3862C61.2228 55.6552 59.3837 57.4943 57.1159 57.4943C54.8469 57.4943 53.0078 55.6552 53.0078 53.3862Z" fill="#5FC7F2"/>
<path d="M24.2578 53.3862C24.2578 51.1173 26.0958 49.2793 28.3648 49.2793C30.6337 49.2793 32.4728 51.1173 32.4728 53.3862C32.4728 55.6552 30.6337 57.4943 28.3648 57.4943C26.0958 57.4943 24.2578 55.6552 24.2578 53.3862Z" fill="#5FC7F2"/>
<path d="M82.0227 43.0801H79.4491C76.618 43.0801 74.3008 45.3962 74.3008 48.2273V58.5239C74.3008 61.355 76.618 63.6723 79.4491 63.6723H82.0227C84.8549 63.6723 87.171 61.355 87.171 58.5239V48.2273C87.171 45.3962 84.8549 43.0801 82.0227 43.0801Z" fill="#5FC7F2"/>
<path d="M42.4837 0.00234916C41.294 0.0368323 40.34 1.01156 40.3744 2.20122C40.4089 3.39089 41.3836 4.34493 42.5733 4.31044C42.5802 4.31044 43.8297 4.32424 44.6377 4.35527C45.84 4.4024 47.1239 4.47251 48.4975 4.62424C52.2401 5.03919 55.9654 5.83115 59.4045 7.04841C64.7724 8.94843 69.0035 11.7749 71.7909 15.6209C75.2059 20.3302 77.3473 25.3176 78.4335 30.3866C79.1588 33.7682 79.3266 36.6855 79.1967 38.8694C79.1841 39.0729 79.1576 39.2246 79.1519 39.2729C79.0197 40.4557 79.899 41.5201 81.0818 41.6522C82.2646 41.7844 83.329 40.904 83.46 39.7223C83.4738 39.6005 83.4887 39.4177 83.5048 39.1384C83.6565 36.5867 83.4646 33.2763 82.6531 29.4889C81.4462 23.8566 79.076 18.2807 75.2921 13.0623C71.9323 8.42888 66.9678 5.13344 60.8402 2.96445C57.0608 1.62651 53.0413 0.810404 48.9918 0.360974C47.5113 0.196604 46.0734 0.0977526 44.7722 0.0471773C43.8837 0.0115447 43.163 -0.00684634 42.6181 0.00234916H42.4837Z" fill="#5FC7F2"/>
<path d="M80.7661 64.5618C79.596 64.6675 78.7557 65.6848 78.8362 66.8515C78.835 66.8434 78.8327 66.863 78.8362 66.8963C78.8764 67.9871 78.4684 69.5251 77.1753 71.0699C75.7546 72.7676 73.4419 74.178 70.0395 75.0642C67.4878 75.7297 63.7153 76.1217 59.0429 76.2757C55.0785 76.4079 50.8117 76.3493 46.7002 76.186C46.6048 76.1826 46.4669 76.1929 46.3416 76.186C45.6588 74.8665 44.5197 73.8079 42.9312 73.8079C40.6622 73.8079 38.8013 75.6688 38.8013 77.9366C38.8013 80.2056 40.6622 82.0206 42.9312 82.0206C44.2232 82.0206 45.2749 81.3838 46.0278 80.4505C46.2105 80.4597 46.3887 80.4895 46.5209 80.4953C50.7278 80.662 55.0946 80.7206 59.1774 80.5849C64.1429 80.4206 68.1867 79.9574 71.1166 79.193C75.3545 78.0884 78.4304 76.2677 80.4512 73.8527C81.6397 72.4331 82.4305 70.8791 82.8305 69.3193C83.0983 68.2745 83.1776 67.3837 83.1443 66.6722C83.1385 66.5699 83.1041 66.548 83.0995 66.4917C82.9926 65.3066 81.9512 64.4549 80.7661 64.5618Z" fill="#5FC7F2"/>
</g>
<defs>
<clipPath id="clip0">
<rect width="92" height="92" fill="white"/>
</clipPath>
</defs>
</svg>
