<svg width="92" height="84" viewBox="0 0 92 84" fill="none" xmlns="http://www.w3.org/2000/svg">
<path d="M4.40041 57.5604C4.40041 64.281 4.40035 71.0015 4.40096 77.7221C4.40102 77.851 4.40163 77.9808 4.41621 78.1085C4.45092 78.4113 4.66581 78.6168 4.97139 78.6458C5.06196 78.6545 5.15345 78.6553 5.24457 78.6553C9.9629 78.6557 14.6813 78.6557 19.3997 78.6551C19.4983 78.6551 19.5978 78.6552 19.6953 78.6427C19.9452 78.6108 20.1492 78.4295 20.1998 78.183C20.2255 78.0578 20.232 77.927 20.232 77.7987C20.2334 64.312 20.2334 50.8253 20.2322 37.3386C20.2321 37.2102 20.2264 37.0794 20.2016 36.954C20.1523 36.7034 19.9564 36.5244 19.7032 36.4899C19.5908 36.4745 19.476 36.4714 19.3624 36.4714C14.6668 36.4705 9.97122 36.4705 5.27563 36.4713C5.1619 36.4714 5.04719 36.4741 4.93473 36.4889C4.65262 36.526 4.45032 36.7296 4.41701 37.0123C4.40193 37.1399 4.40102 37.2698 4.40102 37.3986C4.40035 44.1192 4.40041 50.8398 4.40041 57.5604ZM54.1068 79.0646L54.1069 79.1148C60.3604 79.1148 66.614 79.1151 72.8672 79.114C73.1937 79.1139 73.5213 79.117 73.8465 79.0924C74.8617 79.0158 75.8154 78.7432 76.6701 78.1702C77.7758 77.4286 78.4731 76.3788 78.8913 75.1417C79.2882 73.9669 79.0518 72.8994 78.2378 71.9599C77.7935 71.4472 77.2482 71.071 76.6634 70.7368C75.7698 70.2257 75.3607 69.2685 75.5948 68.2928C75.8209 67.349 76.6409 66.6959 77.6616 66.6343C78.1156 66.6069 78.5752 66.5957 79.0208 66.5139C80.6815 66.2093 81.9173 65.3818 82.4018 63.6711C82.7282 62.5201 82.5963 61.4452 81.851 60.4828C81.3526 59.8392 80.707 59.378 79.9672 59.0483C79.5855 58.8782 79.2493 58.653 78.9983 58.3151C77.971 56.9359 78.8056 55.0457 80.5277 54.8048C81.3295 54.6926 82.1319 54.5491 82.916 54.35C83.9707 54.0823 84.7087 53.4365 85.046 52.3671C85.3755 51.3221 85.3895 50.3076 84.8193 49.3366C84.3992 48.6214 83.8139 48.053 83.1172 47.6221C82.4741 47.2243 81.789 46.8933 81.121 46.5366C80.2918 46.0943 79.8359 45.1977 79.9727 44.2699C80.1064 43.3667 80.8158 42.6429 81.7215 42.4509C82.2547 42.338 82.7951 42.2309 83.3045 42.0445C84.6193 41.563 85.6697 40.7486 86.2843 39.4554C86.7086 38.5633 86.8174 37.6114 86.7615 36.6354C86.6976 35.5186 86.3262 34.5197 85.5202 33.7319C84.288 32.5282 82.7841 31.8955 81.0675 31.8919C72.1469 31.8733 63.2268 31.8797 54.3064 31.8758C54.1246 31.8758 53.9421 31.8653 53.761 31.8476C52.3865 31.7124 51.4795 30.3433 51.9075 29.0316C52.126 28.3621 52.4116 27.713 52.6057 27.0372C53.3528 24.4357 53.6293 21.7646 53.6345 19.0706C53.6377 17.4786 53.5398 15.8842 53.4273 14.295C53.3014 12.5154 53.0171 10.7529 52.6455 9.00799C52.3919 7.81711 51.9434 6.70293 51.171 5.73975C50.0642 4.35957 48.5781 4.01065 47.1339 4.81779C46.2808 5.29454 45.7079 5.97627 45.6195 7.00134C45.5648 7.63584 45.48 8.26894 45.3792 8.89791C45.1537 10.3058 44.9391 11.7165 44.6647 13.1152C44.4111 14.4087 44.1466 15.7058 43.7788 16.9699C43.0455 19.4892 41.8011 21.7757 40.3694 23.9597C37.7181 28.0041 34.5184 31.5778 30.9446 34.8239C29.0137 36.5779 26.9866 38.2101 24.7634 39.5858C24.6239 39.6721 24.621 39.7779 24.621 39.9093C24.622 52.0219 24.6224 64.1344 24.6169 76.2471C24.6168 76.4298 24.6794 76.5157 24.8328 76.592C26.072 77.2085 27.3543 77.7137 28.683 78.1017C31.2984 78.8655 33.9763 79.1788 36.6922 79.1679C42.4971 79.1447 48.3019 79.1003 54.1068 79.0646ZM0 36.6303C0.119448 36.1701 0.184733 35.6872 0.367643 35.2538C1.15168 33.3964 2.56378 32.3467 4.57092 32.1128C4.84155 32.0812 5.11691 32.0817 5.39009 32.0816C10.055 32.0799 14.7199 32.0816 19.3848 32.0798C21.426 32.079 22.9768 32.9379 24.0174 34.7006C24.0288 34.72 24.0427 34.7377 24.0751 34.7847C24.2223 34.6796 24.3703 34.5794 24.5125 34.4716C28.7013 31.2993 32.3438 27.5861 35.4576 23.3593C36.896 21.4068 38.1661 19.3495 39.0918 17.0944C39.5698 15.9299 39.8592 14.7158 40.1141 13.4902C40.6022 11.1423 40.9909 8.77846 41.2664 6.39571C41.5135 4.25885 42.5872 2.61126 44.3258 1.39016C45.8545 0.316592 47.5626 -0.146852 49.4294 0.0406172C50.7515 0.173438 51.9428 0.659677 53.0051 1.45253C54.5744 2.6239 55.5974 4.19617 56.3138 5.99166C56.8892 7.43378 57.1633 8.95025 57.3772 10.4741C57.5946 12.0209 57.7679 13.5756 57.9032 15.1318C58.0743 17.1005 58.0702 19.0743 57.9554 21.0485C57.841 23.0143 57.5978 24.9613 57.174 26.8848C57.1332 27.0696 57.0918 27.2541 57.0512 27.4389C57.0498 27.4452 57.0542 27.4529 57.0618 27.4853C57.1603 27.4853 57.265 27.4852 57.3697 27.4853C65.2712 27.4871 73.173 27.4606 81.0742 27.5049C84.2035 27.5224 86.8909 28.7066 89.0112 31.0395C90.2148 32.3634 90.8689 33.9578 91.0877 35.7305C91.1229 36.0147 91.1503 36.3 91.1813 36.5847V37.5415C91.1692 37.6153 91.1534 37.6888 91.1448 37.7629C91.0938 38.192 91.0689 38.6255 90.991 39.0495C90.5272 41.5812 89.2264 43.5704 87.0885 45.0097C87.0544 45.0325 87.024 45.0604 86.9851 45.0915C88.9449 46.9883 89.971 49.243 89.6191 51.9794C89.2744 54.6631 88.0362 56.7936 85.519 58.042C86.9803 60.1185 87.3134 62.3688 86.6666 64.7775C86.0168 67.1951 84.5713 68.9646 82.2978 70.0455C82.3288 70.0998 82.3501 70.1398 82.3738 70.1783C83.3397 71.7391 83.6862 73.4252 83.3938 75.2388C83.2133 76.3606 82.7963 77.3989 82.2486 78.3865C81.4571 79.8116 80.3976 80.9932 79.0275 81.8878C77.2816 83.0276 75.3449 83.5068 73.2818 83.509C69.4753 83.5131 65.6682 83.4923 61.8618 83.496C54.3323 83.5033 46.8026 83.5201 39.2731 83.5344C39.145 83.5347 39.0169 83.5531 38.8888 83.5631H35.6519C35.532 83.551 35.4123 83.5363 35.2923 83.5273C34.2024 83.4448 33.1072 83.4064 32.0236 83.2734C29.2059 82.9278 26.4865 82.2038 23.8973 81.0243C23.7461 80.9554 23.6547 80.9623 23.5574 81.1042C23.4594 81.2474 23.3416 81.3791 23.2198 81.5034C22.1744 82.5707 20.8915 83.054 19.4087 83.0532C14.7669 83.051 10.1251 83.0529 5.48322 83.0514C5.20244 83.0512 4.9199 83.0522 4.64119 83.0236C2.5814 82.8119 1.14457 81.7431 0.35117 79.8384C0.176102 79.4181 0.114037 78.9509 0 78.5052V36.6303Z" fill="#59C8F7"/>
</svg>
