<svg width="86" height="86" viewBox="0 0 86 86" fill="none" xmlns="http://www.w3.org/2000/svg">
<path d="M41.796 0H44.419C44.818 0.0263733 45.2165 0.0567667 45.6161 0.0785534C48.0746 0.211567 50.5015 0.563587 52.8992 1.11857C56.9354 2.05368 60.7544 3.54549 64.3498 5.60261C69.2678 8.41539 73.4543 12.0847 76.9671 16.5166C80.8159 21.3722 83.4062 26.844 84.8304 32.8698C85.4244 35.3838 85.7896 37.9323 85.9232 40.5129C85.9438 40.9125 85.9742 41.311 86 41.71V44.333C85.988 44.4236 85.9685 44.5142 85.9656 44.6053C85.8911 46.9801 85.6084 49.3302 85.1394 51.6579C84.4503 55.0755 83.3615 58.3613 81.8628 61.5084C79.4973 66.474 76.2877 70.821 72.2572 74.5626C69.2621 77.3432 65.9391 79.6549 62.2812 81.4776C56.9974 84.1109 51.4039 85.5878 45.5095 85.922C45.103 85.9455 44.6965 85.9742 44.29 86H41.71C41.5896 85.9874 41.4698 85.9673 41.3488 85.9633C39.4419 85.9031 37.5487 85.7019 35.6694 85.3819C32.9036 84.9118 30.2072 84.1825 27.5876 83.1769C21.3997 80.8033 16.0419 77.1913 11.5234 72.3455C6.43739 66.8914 3.00599 60.5354 1.22522 53.2919C0.601433 50.7555 0.220727 48.1812 0.0791133 45.572C0.0567533 45.1586 0.0263733 44.7458 0 44.333V41.753C0.0114667 41.6693 0.030965 41.5862 0.0338317 41.5019C0.100912 39.3651 0.338835 37.2466 0.725835 35.1442C1.33987 31.8074 2.33977 28.591 3.72552 25.495C5.54127 21.4369 7.9378 17.7544 10.8951 14.436C14.5684 10.3131 18.8621 6.99352 23.8036 4.52532C29.0852 1.88741 34.6809 0.412806 40.5765 0.0779795C40.983 0.0550462 41.3895 0.0258 41.796 0ZM21.3005 75.7591C21.3561 75.6668 21.3974 75.6003 21.4364 75.5321C22.247 74.1159 23.0572 72.6987 23.8673 71.282C24.1144 70.8502 24.4464 70.5074 24.8798 70.2551C26.1027 69.5442 27.778 70.121 28.3009 71.4299C28.6191 72.2268 28.544 72.9859 28.1226 73.7175C27.2867 75.1692 26.4439 76.6168 25.6039 78.0668C25.5621 78.139 25.5237 78.213 25.4721 78.307C30.2336 80.6514 35.2348 82.0067 40.5456 82.3209V82.04C40.5456 80.3916 40.549 78.7433 40.5444 77.095C40.5427 76.4213 40.7514 75.8359 41.1946 75.3245C41.9869 74.4095 43.5246 74.2656 44.4677 75.0201C45.1351 75.5533 45.4567 76.2407 45.455 77.091C45.4521 78.7393 45.4544 80.3876 45.4544 82.036V82.3232C50.7658 81.9981 55.7802 80.6795 60.5348 78.3082C60.1197 77.5909 59.7195 76.9052 59.3251 76.2166C58.7804 75.2666 58.1996 74.3344 57.7066 73.358C57.0507 72.0571 57.839 70.4145 59.2477 70.0361C60.4093 69.7242 61.4739 70.1536 62.0782 71.1891C62.8178 72.4561 63.5506 73.7284 64.2861 74.9983C64.4473 75.2764 64.6095 75.5544 64.7832 75.8526C69.2162 72.9154 72.893 69.2438 75.8405 64.8084C75.7494 64.754 75.6777 64.7098 75.6049 64.6674C74.1549 63.8286 72.705 62.9893 71.255 62.1511C70.8307 61.9057 70.4925 61.5789 70.2431 61.1529C69.5287 59.9346 70.102 58.2541 71.4092 57.7301C72.2045 57.4113 72.9653 57.4818 73.6974 57.9026C75.1623 58.7443 76.6231 59.5928 78.0863 60.4385C78.1516 60.4763 78.2199 60.5096 78.2996 60.5514C79.4651 58.2025 80.3899 55.7807 81.0883 53.273C81.7877 50.7606 82.2533 48.2059 82.4803 45.5863C82.3611 45.5863 82.2762 45.5863 82.1913 45.5863C80.543 45.5863 78.8947 45.584 77.2463 45.5874C76.5801 45.5886 76.0016 45.3782 75.4965 44.9407C74.4278 44.0148 74.4433 42.2191 75.5235 41.3064C76.0292 40.8787 76.6054 40.6791 77.2595 40.6791C78.9222 40.6791 80.5849 40.6791 82.2475 40.6791H82.4952C82.3479 38.0361 81.9311 35.4624 81.2568 32.9311C80.5837 30.4021 79.6641 27.966 78.479 25.6217C78.3879 25.6733 78.3196 25.7111 78.252 25.7501C76.7263 26.6308 75.2093 27.5257 73.6739 28.3874C72.3203 29.1465 70.5395 28.3399 70.1789 26.8314C69.9065 25.6888 70.3423 24.6648 71.3651 24.0703C72.8449 23.2108 74.3269 22.356 75.8078 21.4989C75.8738 21.461 75.9369 21.4186 76.016 21.3693C74.5591 19.1619 72.9074 17.1427 71.0521 15.2896C69.1927 13.4338 67.1689 11.7803 64.961 10.3297C64.5676 11.0086 64.1921 11.6593 63.8137 12.3083C63.2519 13.2732 62.7083 14.2496 62.1184 15.1974C61.6047 16.0218 60.5795 16.4013 59.5991 16.1949C58.6835 16.0029 57.9216 15.2145 57.7381 14.2938C57.6017 13.6104 57.7473 12.99 58.0913 12.3989C58.9272 10.9633 59.758 9.52536 60.5904 8.08802C60.6283 8.02208 60.6627 7.95443 60.7074 7.87244C55.9487 5.52808 50.9458 4.17387 45.6333 3.85796V4.13946C45.6333 5.75913 45.6305 7.3788 45.635 8.99846C45.6368 9.66353 45.4344 10.2449 44.9963 10.7511C44.0624 11.8313 42.265 11.8198 41.3471 10.7322C40.9194 10.226 40.7216 9.64977 40.7221 8.99502C40.7227 7.34669 40.7221 5.69835 40.7221 4.05059V3.76737C35.4119 4.0913 30.3976 5.41169 25.6469 7.7807C25.7025 7.87874 25.7404 7.94755 25.7799 8.0152C26.6267 9.4772 27.4673 10.9432 28.3232 12.3995C29.1701 13.8397 28.4987 15.5551 26.9753 16.0482C25.8659 16.4071 24.7049 15.9341 24.08 14.8625C23.3914 13.6815 22.7074 12.497 22.0217 11.3142C21.8176 10.9616 21.6129 10.6095 21.3985 10.2397C19.1946 11.6897 17.173 13.338 15.3177 15.1899C13.4578 17.0469 11.8021 19.0702 10.3441 21.2798C10.4381 21.3326 10.5115 21.375 10.5854 21.4163C12.04 22.2321 13.4968 23.0446 14.9491 23.8656C16.2488 24.6 16.6387 26.2225 15.8154 27.4426C15.136 28.4505 13.7331 28.8026 12.6701 28.2006C11.1439 27.3365 9.63085 26.4496 8.11209 25.5724C8.03985 25.5305 7.96819 25.4898 7.88276 25.4411C5.53267 30.2043 4.17559 35.2038 3.86255 40.5031H4.15724C5.78379 40.5031 7.4109 40.5043 9.03745 40.5026C9.69506 40.5014 10.269 40.7101 10.7672 41.1447C11.7109 41.9686 11.8434 43.4747 11.0573 44.4482C10.5362 45.0944 9.86133 45.4069 9.03802 45.408C7.37535 45.4103 5.71269 45.4086 4.05059 45.4086H3.76967C4.09647 50.7159 5.41686 55.7257 7.78816 60.4695C7.8776 60.419 7.94583 60.3817 8.01348 60.3422C9.47032 59.5005 10.9277 58.66 12.3823 57.8149C12.9201 57.5025 13.4871 57.362 14.1109 57.4509C15.2203 57.6091 16.1365 58.625 16.168 59.7396C16.1961 60.7573 15.7713 61.5192 14.8918 62.0289C13.4166 62.882 11.9414 63.7346 10.4668 64.5883C10.4003 64.6267 10.3361 64.6686 10.2518 64.7207C13.193 69.1486 16.8652 72.8162 21.3005 75.7591ZM44.9189 27.2236C44.9189 30.835 44.9201 34.447 44.9144 38.059C44.9144 38.2448 44.9734 38.3319 45.1408 38.4093C47.1911 39.353 48.3486 41.3683 48.1325 43.6169C48.1176 43.7723 48.2127 43.8176 48.2993 43.8835C49.9304 45.123 51.5627 46.362 53.1944 47.601C55.7727 49.5595 58.3516 51.5174 60.9299 53.4765C61.8306 54.1611 62.182 55.2699 61.8231 56.2836C61.4155 57.4371 60.1834 58.1165 58.9616 57.8654C58.5826 57.7874 58.2438 57.6269 57.9371 57.3941C53.7494 54.2138 49.5618 51.0341 45.3776 47.8493C45.1976 47.7122 45.0651 47.6732 44.8324 47.7661C42.6508 48.6347 40.0536 47.7575 38.8198 45.7549C37.1738 43.0843 38.1788 39.7297 41.026 38.4156C41.2101 38.3308 41.272 38.2356 41.2714 38.0338C41.2662 30.8465 41.2685 23.6586 41.2645 16.4707C41.2639 15.6629 41.5913 15.0598 42.3051 14.6831C43.403 14.104 44.7934 14.8728 44.8949 16.1101C44.9092 16.2878 44.9178 16.4673 44.9178 16.6462C44.9189 20.1716 44.9189 23.6976 44.9189 27.2236Z" fill="#59C8F7"/>
</svg>
