<svg width="81" height="86" viewBox="0 0 81 86" fill="none" xmlns="http://www.w3.org/2000/svg">
<path d="M40.0773 0.00281425C39.8327 0.0142818 39.6091 0.0649303 39.4199 0.122268L1.19463 15.4124C0.487459 15.6981 -0.00755771 16.4416 8.7334e-05 17.2042V68.8082C0.00390986 69.5632 0.497015 70.2894 1.19463 70.5666L39.4199 85.8567C39.8738 86.0478 40.3994 86.0478 40.8533 85.8567L79.0785 70.5666C79.7761 70.2894 80.2692 69.5632 80.2731 68.8082V17.2042C80.2807 16.4416 79.7857 15.6981 79.0785 15.4124L40.8533 0.122268C40.5876 0.0171487 40.321 -0.00960895 40.0773 0.00281425ZM40.1366 3.97442L73.1957 17.2042L59.2492 22.7583L26.1901 9.55912L40.1366 3.97442ZM21.024 11.6195L54.0831 24.8492L40.1366 30.4034L7.07749 17.2042L21.024 11.6195ZM3.82261 20.0109L38.2253 33.7777V81.2314L3.82261 67.499V20.0109ZM76.4505 20.0109V67.499L42.0478 81.2314V33.7777L57.3379 27.6559V40.1393C57.3379 40.1479 57.3379 40.1565 57.3379 40.1661C57.3379 41.2192 58.2009 42.0793 59.2492 42.0793C60.2975 42.0793 61.1605 41.2192 61.1605 40.1661C61.1605 40.1565 61.1605 40.1479 61.1605 40.1393V26.1326L76.4505 20.0109Z" fill="#5FC7F2"/>
</svg>
