<svg width="23" height="23" viewBox="0 0 23 23" fill="none" xmlns="http://www.w3.org/2000/svg">
<path d="M11.5 0C8.45001 0 5.52494 1.20809 3.36827 3.35851C1.2116 5.50892 0 8.42552 0 11.4667C0 14.5078 1.2116 17.4244 3.36827 19.5748C5.52494 21.7252 8.45001 22.9333 11.5 22.9333C14.55 22.9333 17.4751 21.7252 19.6317 19.5748C21.7884 17.4244 23 14.5078 23 11.4667C23 8.42552 21.7884 5.50892 19.6317 3.35851C17.4751 1.20809 14.55 0 11.5 0ZM11.4872 4.08404C11.5967 4.08276 11.7053 4.10333 11.8067 4.14452C11.9081 4.18571 12.0002 4.2467 12.0777 4.3239C12.1551 4.4011 12.2163 4.49296 12.2576 4.59407C12.2989 4.69518 12.3195 4.80351 12.3182 4.91268V11.1275L17.0126 15.8019C17.0912 15.8776 17.1538 15.9681 17.1969 16.0683C17.2399 16.1684 17.2625 16.2761 17.2633 16.3851C17.2641 16.494 17.2431 16.602 17.2015 16.7028C17.16 16.8036 17.0986 16.895 17.0211 16.9719C16.9437 17.0487 16.8516 17.1093 16.7503 17.1502C16.649 17.1912 16.5406 17.2115 16.4313 17.2101C16.322 17.2087 16.2141 17.1856 16.114 17.1421C16.0138 17.0986 15.9233 17.0356 15.8478 16.9568L10.9176 12.0474C10.7649 11.8926 10.6801 11.6837 10.6818 11.4667V4.91268C10.6792 4.69655 10.7624 4.48817 10.9133 4.33296C11.0642 4.17774 11.2704 4.08827 11.4872 4.08404Z" fill="#59C8F7"/>
</svg>
