<svg width="19" height="13" viewBox="0 0 19 13" fill="none" xmlns="http://www.w3.org/2000/svg">
<path d="M9.49994 8.63634C10.9308 8.63634 12.0907 7.47642 12.0907 6.04559C12.0907 4.61475 10.9308 3.45483 9.49994 3.45483C8.0691 3.45483 6.90918 4.61475 6.90918 6.04559C6.90918 7.47642 8.0691 8.63634 9.49994 8.63634Z" fill="white"/>
<path d="M9.5 0C4.31807 0 0 5.61366 0 6.04559C0 6.4771 4.31807 12.0912 9.5 12.0912C14.6817 12.0912 19 6.47752 19 6.04559C19 5.61344 14.6819 0 9.5 0ZM9.5 10.3637C7.11444 10.3637 5.18193 8.43072 5.18193 6.04559C5.18193 3.65982 7.11444 1.72752 9.5 1.72752C11.8853 1.72752 13.8181 3.65982 13.8181 6.04559C13.8181 8.43072 11.8853 10.3637 9.5 10.3637Z" fill="white"/>
</svg>
