<svg width="27" height="27" viewBox="0 0 27 27" fill="none" xmlns="http://www.w3.org/2000/svg">
<path d="M1.76086 1.87453C-0.354383 4.07164 0.0785347 6.40558 0.0785347 13.496C0.0785347 19.3841 -0.948803 25.2868 4.4279 26.6764C6.10685 27.1082 20.9831 27.1082 22.6598 26.6742C24.8984 26.0966 26.7198 24.2808 26.9688 21.1147C27.0035 20.6728 27.0035 6.32707 26.9676 5.87621C26.703 2.50372 24.627 0.560075 21.8915 0.166411C21.2646 0.0755659 21.139 0.0486488 17.9224 0.043041C6.51285 0.0486488 4.0118 -0.459412 1.76086 1.87453Z" fill="url(#paint0_linear)"/>
<path d="M13.5343 3.56367C9.46198 3.56367 5.59488 3.20141 4.1178 6.99224C3.50768 8.55792 3.59629 10.5913 3.59629 13.5028C3.59629 16.0577 3.51441 18.4589 4.1178 20.0123C5.59152 23.8054 9.49002 23.442 13.5321 23.442C17.4317 23.442 21.4524 23.848 22.9475 20.0123C23.5587 18.4309 23.469 16.4278 23.469 13.5028C23.469 9.62003 23.6832 7.11337 21.8001 5.23141C19.8935 3.32478 17.3151 3.56367 13.5298 3.56367H13.5343ZM12.6438 5.35478C21.1384 5.34132 22.2196 4.39698 21.6229 17.5157C21.4109 22.1556 17.8781 21.6464 13.5354 21.6464C5.61731 21.6464 5.38964 21.4198 5.38964 13.4983C5.38964 5.48488 6.01771 5.35927 12.6438 5.35254V5.35478ZM18.8392 7.00458C18.1809 7.00458 17.647 7.53843 17.647 8.19678C17.647 8.85513 18.1809 9.38899 18.8392 9.38899C19.4976 9.38899 20.0314 8.85513 20.0314 8.19678C20.0314 7.53843 19.4976 7.00458 18.8392 7.00458ZM13.5343 8.39866C10.7159 8.39866 8.43128 10.6844 8.43128 13.5028C8.43128 16.3213 10.7159 18.6059 13.5343 18.6059C16.3528 18.6059 18.6362 16.3213 18.6362 13.5028C18.6362 10.6844 16.3528 8.39866 13.5343 8.39866ZM13.5343 10.1898C17.914 10.1898 17.9196 16.8159 13.5343 16.8159C9.1558 16.8159 9.14907 10.1898 13.5343 10.1898Z" fill="white"/>
<defs>
<linearGradient id="paint0_linear" x1="1.81247" y1="25.241" x2="26.8291" y2="3.58935" gradientUnits="userSpaceOnUse">
<stop stop-color="#FFDD55"/>
<stop offset="0.5" stop-color="#FF543E"/>
<stop offset="1" stop-color="#C837AB"/>
</linearGradient>
</defs>
</svg>
