<svg width="27" height="27" viewBox="0 0 27 27" fill="none" xmlns="http://www.w3.org/2000/svg">
<path d="M0 10.1264L13.0005 18.4002C13.149 18.5099 13.3245 18.5639 13.5 18.5639C13.6755 18.5639 13.851 18.5099 13.9995 18.4002L27 10.1264L14.0063 0.170159C13.7059 -0.0542783 13.2941 -0.0542783 12.9937 0.170159L0 10.1264Z" fill="#64B5F6"/>
<path d="M21.9375 0H5.0625C4.13269 0 3.375 0.757688 3.375 1.6875V20.25C3.375 20.7157 3.753 21.0938 4.21875 21.0938H22.7812C23.247 21.0938 23.625 20.7157 23.625 20.25V1.6875C23.625 0.757688 22.869 0 21.9375 0Z" fill="#ECEFF1"/>
<path d="M7.59375 5.0625H19.4062C19.872 5.0625 20.25 4.6845 20.25 4.21875C20.25 3.753 19.872 3.375 19.4062 3.375H7.59375C7.128 3.375 6.75 3.753 6.75 4.21875C6.75 4.6845 7.128 5.0625 7.59375 5.0625Z" fill="#90A4AE"/>
<path d="M19.4062 6.75H7.59375C7.128 6.75 6.75 7.128 6.75 7.59375C6.75 8.0595 7.128 8.4375 7.59375 8.4375H19.4062C19.872 8.4375 20.25 8.0595 20.25 7.59375C20.25 7.128 19.872 6.75 19.4062 6.75Z" fill="#90A4AE"/>
<path d="M14.3438 10.125H7.59375C7.128 10.125 6.75 10.503 6.75 10.9688C6.75 11.4345 7.128 11.8125 7.59375 11.8125H14.3438C14.8095 11.8125 15.1875 11.4345 15.1875 10.9688C15.1875 10.503 14.8095 10.125 14.3438 10.125Z" fill="#90A4AE"/>
<path d="M13.9995 18.3988C13.851 18.5085 13.6755 18.5625 13.5 18.5625C13.3245 18.5625 13.149 18.5085 13.0005 18.3988L0 10.125V25.3125C0 26.244 0.756 27 1.6875 27H25.3125C26.244 27 27 26.244 27 25.3125V10.125L13.9995 18.3988Z" fill="#1E88E5"/>
<path d="M25.3125 27H1.6875C0.740813 27 0 26.2592 0 25.3125C0 25.0442 0.12825 24.7911 0.34425 24.6324L13.0005 16.1949C13.149 16.0853 13.3245 16.0312 13.5 16.0312C13.6755 16.0312 13.851 16.0853 13.9995 16.1949L26.6557 24.6324C26.8717 24.7911 27 25.0442 27 25.3125C27 26.2592 26.2592 27 25.3125 27Z" fill="#2196F3"/>
</svg>
