<svg width="27" height="27" viewBox="0 0 27 27" fill="none" xmlns="http://www.w3.org/2000/svg">
<path d="M21.8627 20.9057L19.0658 18.1087C18.1405 17.1834 16.6348 17.1834 15.7094 18.1087L14.5907 19.2274C14.2814 19.5367 13.7811 19.5367 13.4719 19.2274L7.77251 13.5281C7.46335 13.2189 7.46329 12.7186 7.77251 12.4094L8.89132 11.2906C9.81664 10.3652 9.81664 8.85964 8.89132 7.93432L6.09439 5.13739C5.16912 4.21202 3.66341 4.21202 2.73809 5.13739L1.61933 6.25615C-0.539776 8.41526 -0.539776 11.9284 1.61933 14.0876L12.9126 25.3808C15.0718 27.54 18.5849 27.5398 20.744 25.3808L21.8627 24.262C22.788 23.3366 22.788 21.831 21.8627 20.9057Z" fill="url(#paint0_linear)"/>
<path d="M13.5509 9.49312C13.114 9.49312 12.7598 9.84732 12.7598 10.2842C12.7598 10.7211 13.114 11.0753 13.5509 11.0753C14.8595 11.0753 15.9241 12.14 15.9241 13.4486C15.9241 13.8855 16.2783 14.2397 16.7152 14.2397C17.1521 14.2397 17.5063 13.8855 17.5063 13.4486C17.5063 11.2675 15.7319 9.49312 13.5509 9.49312ZM13.5509 4.74656C13.114 4.74656 12.7598 5.10076 12.7598 5.53765C12.7598 5.97455 13.114 6.32875 13.5509 6.32875C17.4767 6.32875 20.6707 9.52271 20.6707 13.4486C20.6707 13.8855 21.0249 14.2397 21.4618 14.2397C21.8987 14.2397 22.2529 13.8855 22.2529 13.4486C22.2529 8.65029 18.3492 4.74656 13.5509 4.74656ZM23.0604 3.93901C20.5203 1.39886 17.1431 0 13.5509 0C13.114 0 12.7598 0.354199 12.7598 0.791094C12.7598 1.22799 13.114 1.58219 13.5509 1.58219C20.094 1.58219 25.4173 6.90546 25.4173 13.4486C25.4173 13.8855 25.7715 14.2397 26.2084 14.2397C26.6452 14.2397 26.9994 13.8855 26.9994 13.4486C26.9994 9.85634 25.6005 6.47911 23.0604 3.93901Z" fill="url(#paint1_linear)"/>
<defs>
<linearGradient id="paint0_linear" x1="7.26589" y1="19.7341" x2="13.9785" y2="13.0215" gradientUnits="userSpaceOnUse">
<stop stop-color="#A93AFF"/>
<stop offset="1" stop-color="#FF81FF"/>
</linearGradient>
<linearGradient id="paint1_linear" x1="14.5736" y1="12.4258" x2="23.0604" y2="3.93901" gradientUnits="userSpaceOnUse">
<stop stop-color="#FFBEF9"/>
<stop offset="1" stop-color="#FFF1FF"/>
</linearGradient>
</defs>
</svg>
