<svg width="27" height="27" viewBox="0 0 27 27" fill="none" xmlns="http://www.w3.org/2000/svg">
<path d="M23.0847 3.88008C20.5197 1.40061 17.1448 0 13.5505 0C3.23434 0 -3.24333 11.1767 1.90798 20.0675L0 26.9997L7.12679 25.1412C10.2317 26.8185 12.7753 26.67 13.5572 26.769C25.5192 26.769 31.4737 12.2972 23.0678 3.92395L23.0847 3.88008Z" fill="#ECEFF1"/>
<path d="M13.5755 24.4695L13.5687 24.4683H13.5507C9.97102 24.4683 7.68392 22.773 7.45892 22.6751L3.24022 23.772L4.37083 19.6714L4.10196 19.2495C2.98823 17.4766 2.39648 15.4347 2.39648 13.3321C2.39648 3.44011 14.4845 -1.50646 21.4796 5.48533C28.4579 12.404 23.5586 24.4695 13.5755 24.4695Z" fill="#4CAF50"/>
<path d="M19.6954 16.0951L19.6852 16.1795C19.3466 16.0107 17.6974 15.2041 17.3903 15.0927C16.7007 14.8374 16.8953 15.0522 15.5712 16.5687C15.3743 16.7881 15.1786 16.805 14.8444 16.6531C14.5069 16.4843 13.4236 16.13 12.1411 14.9825C11.1421 14.0881 10.4716 12.9913 10.2736 12.6538C9.94399 12.0845 10.6336 12.0035 11.2613 10.8155C11.3738 10.5793 11.3165 10.3937 11.2332 10.226C11.1488 10.0573 10.4772 8.40356 10.196 7.74432C9.92599 7.08732 9.64812 7.17057 9.44 7.17057C8.792 7.11432 8.31838 7.12332 7.90102 7.55757C6.08529 9.55329 6.54316 11.612 8.09676 13.8012C11.15 17.7972 12.7767 18.5329 15.7512 19.5544C16.5544 19.8098 17.2868 19.7738 17.8661 19.6905C18.5119 19.5882 19.854 18.8794 20.1341 18.0863C20.421 17.2932 20.421 16.6351 20.3366 16.4832C20.2534 16.3313 20.0329 16.247 19.6954 16.0951Z" fill="#FAFAFA"/>
</svg>
