<svg width="41" height="38" viewBox="0 0 41 38" fill="none" xmlns="http://www.w3.org/2000/svg">
<circle cx="2.51447" cy="34.78" r="2.45783" transform="rotate(-90 2.51447 34.78)" fill="#E3E3E3"/>
<circle cx="2.51447" cy="24.0549" r="2.45783" transform="rotate(-90 2.51447 24.0549)" fill="#E3E3E3"/>
<circle cx="2.51447" cy="13.3298" r="2.45783" transform="rotate(-90 2.51447 13.3298)" fill="#E3E3E3"/>
<circle cx="2.51447" cy="2.60467" r="2.45783" transform="rotate(-90 2.51447 2.60467)" fill="#E3E3E3"/>
<circle cx="11.452" cy="34.78" r="2.45783" transform="rotate(-90 11.452 34.78)" fill="#E3E3E3"/>
<circle cx="11.452" cy="24.0549" r="2.45783" transform="rotate(-90 11.452 24.0549)" fill="#E3E3E3"/>
<circle cx="11.452" cy="13.3298" r="2.45783" transform="rotate(-90 11.452 13.3298)" fill="#E3E3E3"/>
<circle cx="11.452" cy="2.60467" r="2.45783" transform="rotate(-90 11.452 2.60467)" fill="#E3E3E3"/>
<circle cx="20.3895" cy="34.78" r="2.45783" transform="rotate(-90 20.3895 34.78)" fill="#E3E3E3"/>
<circle cx="20.3895" cy="24.0549" r="2.45783" transform="rotate(-90 20.3895 24.0549)" fill="#E3E3E3"/>
<circle cx="20.3895" cy="13.3298" r="2.45783" transform="rotate(-90 20.3895 13.3298)" fill="#E3E3E3"/>
<circle cx="20.3895" cy="2.60467" r="2.45783" transform="rotate(-90 20.3895 2.60467)" fill="#E3E3E3"/>
<circle cx="29.327" cy="34.78" r="2.45783" transform="rotate(-90 29.327 34.78)" fill="#E3E3E3"/>
<circle cx="29.327" cy="24.0549" r="2.45783" transform="rotate(-90 29.327 24.0549)" fill="#E3E3E3"/>
<circle cx="29.327" cy="13.3298" r="2.45783" transform="rotate(-90 29.327 13.3298)" fill="#E3E3E3"/>
<circle cx="29.327" cy="2.60467" r="2.45783" transform="rotate(-90 29.327 2.60467)" fill="#E3E3E3"/>
<circle cx="38.2645" cy="34.78" r="2.45783" transform="rotate(-90 38.2645 34.78)" fill="#E3E3E3"/>
<circle cx="38.2645" cy="24.0549" r="2.45783" transform="rotate(-90 38.2645 24.0549)" fill="#E3E3E3"/>
<circle cx="38.2645" cy="13.3298" r="2.45783" transform="rotate(-90 38.2645 13.3298)" fill="#E3E3E3"/>
<circle cx="38.2645" cy="2.60467" r="2.45783" transform="rotate(-90 38.2645 2.60467)" fill="#E3E3E3"/>
</svg>
