<svg width="71" height="69" viewBox="0 0 71 69" fill="none" xmlns="http://www.w3.org/2000/svg">
<path d="M47.1992 21.39C60.1633 21.192 70.7445 31.3956 70.9955 44.3587C71.0324 46.262 70.8422 48.1145 70.4503 49.8915C69.7866 52.9002 69.3921 55.9619 69.3921 59.0431V64.9987C69.3921 65.9112 68.6524 66.6509 67.7399 66.6509H61.7843C58.7031 66.6509 55.6414 67.0454 52.6327 67.7091C50.8559 68.101 49.0033 68.2912 47.1001 68.2543C34.1371 68.0035 23.9335 57.4226 24.1312 44.4587C24.3241 31.805 34.5456 21.5833 47.1992 21.39Z" fill="url(#paint0_linear)"/>
<path d="M47.1992 21.39C60.1633 21.192 70.7445 31.3956 70.9955 44.3587C71.0324 46.262 70.8422 48.1145 70.4503 49.8915C69.7866 52.9002 69.3921 55.9619 69.3921 59.0431V64.9987C69.3921 65.9112 68.6524 66.6509 67.7399 66.6509H61.7843C58.7031 66.6509 55.6414 67.0454 52.6327 67.7091C50.8559 68.101 49.0033 68.2912 47.1001 68.2543C34.1371 68.0035 23.9335 57.4226 24.1312 44.4587C24.3241 31.805 34.5456 21.5833 47.1992 21.39Z" fill="url(#paint1_linear)"/>
<path d="M28.996 0.00345388C13.2021 -0.237834 0.311367 12.1928 0.00545801 27.9855C-0.0393329 30.304 0.192387 32.5611 0.669972 34.7258C1.47843 38.3912 1.95906 42.1213 1.95906 45.875V53.1306C1.95906 54.2421 2.86015 55.1434 3.97188 55.1434H11.2274C14.981 55.1434 18.7111 55.624 22.3766 56.4325C24.5413 56.9099 26.7983 57.1418 29.1168 57.0968C44.9092 56.7911 57.3399 43.9007 57.0991 28.1072C56.8639 12.6915 44.4115 0.238779 28.996 0.00345388Z" fill="url(#paint2_linear)"/>
<path d="M18.3313 27.0209C17.5248 26.1639 16.3832 25.6257 15.1133 25.6257C12.6709 25.6257 10.6909 27.6057 10.6909 30.0481C10.6909 31.3179 11.229 32.4595 12.0861 33.2661L21.6259 42.8059C22.4325 43.6629 23.574 44.201 24.8439 44.201C27.2863 44.201 29.2662 42.2211 29.2662 39.7787C29.2662 38.5089 28.728 37.3673 27.8711 36.5607L18.3313 27.0209Z" fill="url(#paint3_linear)"/>
<path d="M15.1133 34.4697C17.5557 34.4697 19.5357 32.4898 19.5357 30.0474C19.5357 27.605 17.5557 25.625 15.1133 25.625C12.6709 25.625 10.6909 27.605 10.6909 30.0474C10.6909 32.4898 12.6709 34.4697 15.1133 34.4697Z" fill="white"/>
<path d="M30.8381 27.0209C30.0316 26.1639 28.8901 25.6257 27.6201 25.6257C25.1777 25.6257 23.1978 27.6057 23.1978 30.0481C23.1978 31.3179 23.7358 32.4595 24.5929 33.2661L34.1327 42.8059C34.9393 43.6629 36.0809 44.201 37.3507 44.201C39.7931 44.201 41.7731 42.2211 41.7731 39.7787C41.7731 38.5089 41.2349 37.3673 40.3779 36.5607L30.8381 27.0209Z" fill="url(#paint4_linear)"/>
<path d="M27.6206 34.4697C30.063 34.4697 32.043 32.4898 32.043 30.0474C32.043 27.605 30.063 25.625 27.6206 25.625C25.1782 25.625 23.1982 27.605 23.1982 30.0474C23.1982 32.4898 25.1782 34.4697 27.6206 34.4697Z" fill="white"/>
<path d="M43.3455 27.0209C42.5389 26.1639 41.3974 25.6257 40.1274 25.6257C37.685 25.6257 35.7051 27.6057 35.7051 30.0481C35.7051 31.3179 36.2433 32.4595 37.1003 33.2661L46.64 42.8059C47.4467 43.6629 48.5882 44.201 49.858 44.201C52.3004 44.201 54.2804 42.2211 54.2804 39.7787C54.2804 38.5089 53.7422 37.3673 52.8852 36.5607L43.3455 27.0209Z" fill="url(#paint5_linear)"/>
<path d="M40.1274 34.4697C42.5699 34.4697 44.5498 32.4898 44.5498 30.0474C44.5498 27.605 42.5699 25.625 40.1274 25.625C37.685 25.625 35.7051 27.605 35.7051 30.0474C35.7051 32.4898 37.685 34.4697 40.1274 34.4697Z" fill="white"/>
<defs>
<linearGradient id="paint0_linear" x1="42.8334" y1="40.0937" x2="77.2411" y2="74.5014" gradientUnits="userSpaceOnUse">
<stop stop-color="#A7F3CE"/>
<stop offset="1" stop-color="#61DB99"/>
</linearGradient>
<linearGradient id="paint1_linear" x1="54.0967" y1="51.3563" x2="39.4822" y2="36.7432" gradientUnits="userSpaceOnUse">
<stop stop-color="#61DB99" stop-opacity="0"/>
<stop offset="1" stop-color="#009E74"/>
</linearGradient>
<linearGradient id="paint2_linear" x1="18.1201" y1="23.9354" x2="54.4476" y2="60.2628" gradientUnits="userSpaceOnUse">
<stop stop-color="#62E1FB"/>
<stop offset="1" stop-color="#00A2F3"/>
</linearGradient>
<linearGradient id="paint3_linear" x1="24.9509" y1="39.8866" x2="5.82397" y2="20.7602" gradientUnits="userSpaceOnUse">
<stop stop-color="#00A2F3" stop-opacity="0"/>
<stop offset="1" stop-color="#0075CD"/>
</linearGradient>
<linearGradient id="paint4_linear" x1="37.4569" y1="39.8861" x2="18.3305" y2="20.7598" gradientUnits="userSpaceOnUse">
<stop stop-color="#00A2F3" stop-opacity="0"/>
<stop offset="1" stop-color="#0075CD"/>
</linearGradient>
<linearGradient id="paint5_linear" x1="49.9642" y1="39.8863" x2="30.8378" y2="20.76" gradientUnits="userSpaceOnUse">
<stop stop-color="#00A2F3" stop-opacity="0"/>
<stop offset="1" stop-color="#0075CD"/>
</linearGradient>
</defs>
</svg>
