<svg width="126" height="24" viewBox="0 0 126 24" fill="none" xmlns="http://www.w3.org/2000/svg">
<path d="M39.5853 0L30.394 23.1818H34.3181L40.9134 6.11239L44.3092 14.9263L45.5467 18.2013L47.4786 23.1818H51.4025L42.2415 0H39.5853Z" fill="#575757"/>
<path d="M78.9406 23.1924L88.1318 0.0105782H84.2078L77.6125 17.08L74.2167 8.26608L72.9792 4.99104L71.0473 0.0105782H67.1233L76.2844 23.1924H78.9406Z" fill="#575757"/>
<path d="M113.191 0L104 23.1818H107.924L114.519 6.11239L117.915 14.9263L119.152 18.2013L121.084 23.1818H125.008L115.847 0H113.191Z" fill="#575757"/>
<path d="M0 0V23.1818H14.5792V19.9068H3.83346V0H0Z" fill="#575757"/>
</svg>
