<svg width="98" height="20" viewBox="0 0 98 20" fill="none" xmlns="http://www.w3.org/2000/svg">
<path d="M87.0283 19.6335C88.1435 19.6335 88.97 18.8337 88.97 17.7544C88.97 16.6817 88.1435 15.8757 87.0283 15.8757C85.9198 15.8757 85.0866 16.6817 85.0866 17.7544C85.0866 18.8337 85.9198 19.6335 87.0283 19.6335ZM69.3606 19.6335C70.4758 19.6335 71.3024 18.8337 71.3024 17.7544C71.3024 16.6817 70.4758 15.8757 69.3606 15.8757C68.2521 15.8757 67.4189 16.6817 67.4189 17.7544C67.4189 18.8337 68.2521 19.6335 69.3606 19.6335ZM26.1113 19.5946H27.63C28.8477 19.5946 29.6102 18.8532 29.6102 17.7544C29.6102 16.6623 28.8477 15.9209 27.63 15.9209H26.1113V19.5946ZM48.5597 19.5946H51.0392V19.2044H49.0206V15.9209H48.5597V19.5946ZM54.7242 19.5946H57.2043V19.2044H55.1857V15.9209H54.7242V19.5946ZM31.6929 19.2044V17.9236H33.5638V17.5401H31.6929V16.311H33.7884V15.9209H31.2314V19.5946H33.8653V19.2044H31.6929ZM75.9036 19.5946L75.0191 18.3461C75.538 18.1641 75.8456 17.761 75.8456 17.1888C75.8456 16.3828 75.2627 15.9209 74.3336 15.9209H72.9236V19.5946H73.3851V18.4502H74.3336C74.4167 18.4502 74.5002 18.4435 74.5833 18.4373L75.4037 19.5946H75.9036ZM93.5692 19.5946L92.6873 18.3461C93.2052 18.1641 93.5128 17.761 93.5128 17.1888C93.5128 16.3828 92.9283 15.9209 92.0003 15.9209H90.5902V19.5946H91.0517V18.4502H92.0003C92.0823 18.4502 92.1695 18.4435 92.2515 18.4373L93.0719 19.5946H93.5692ZM80.2418 19.5946H80.7033L79.0307 15.9209H78.5759L76.9034 19.5946H77.3649L77.7874 18.645H79.8188L80.2418 19.5946ZM41.2348 19.5946H41.6963V16.311H42.9714V15.9209H39.9597V16.311H41.2348V19.5946ZM82.4399 19.5946H82.9013V16.311H84.1765V15.9209H81.1647V16.311H82.4399V19.5946ZM38.1589 15.9209V18.788L35.884 15.9209H35.4994V19.5946H35.9609V16.7274L38.2359 19.5946H38.6204V15.9209H38.1589ZM65.4388 17.6959C65.772 17.5529 65.9771 17.2734 65.9771 16.8638C65.9771 16.2721 65.5028 15.9209 64.6697 15.9209H63.0551V19.5946H64.7722C65.7018 19.5946 66.1756 19.2367 66.1756 18.606C66.1756 18.1184 65.913 17.8067 65.4388 17.6959ZM61.2605 19.5946H61.722L60.0494 15.9209H59.5947L57.9222 19.5946H58.3831L58.8061 18.645H60.8375L61.2605 19.5946ZM46.7651 19.5946H47.2266L45.554 15.9209H45.0987L43.4262 19.5946H43.8877L44.3107 18.645H46.3421L46.7651 19.5946ZM97.9992 15.9209H97.5275L96.2816 17.9497L95.0407 15.9209H94.5434L96.0457 18.385V19.5946H96.502V18.3984L97.9992 15.9209ZM87.0283 19.2305C86.1823 19.2305 85.5481 18.606 85.5481 17.761C85.5481 16.9094 86.1823 16.2854 87.0283 16.2854C87.8743 16.2854 88.5086 16.9094 88.5086 17.761C88.5086 18.606 87.8743 19.2305 87.0283 19.2305ZM64.7532 19.2305H63.5165V17.9169H64.7532C65.3747 17.9169 65.7079 18.1123 65.7079 18.5737C65.7079 19.0224 65.3747 19.2305 64.7532 19.2305ZM69.3606 19.2305C68.5146 19.2305 67.8804 18.606 67.8804 17.761C67.8804 16.9094 68.5146 16.2854 69.3606 16.2854C70.2067 16.2854 70.8409 16.9094 70.8409 17.761C70.8409 18.606 70.2067 19.2305 69.3606 19.2305ZM26.5728 19.2044V16.311H27.6105C28.5847 16.311 29.1487 16.8899 29.1487 17.7544C29.1487 18.6255 28.5847 19.2044 27.6105 19.2044H26.5728ZM44.4773 18.2681L45.3295 16.3633L46.1755 18.2681H44.4773ZM58.9727 18.2681L59.8254 16.3633L60.6709 18.2681H58.9727ZM77.954 18.2681L78.8067 16.3633L79.6527 18.2681H77.954ZM91.9746 18.0666H91.0517V16.311H91.9746C92.6719 16.311 93.0514 16.6233 93.0514 17.1888C93.0514 17.7477 92.6719 18.0666 91.9746 18.0666ZM74.308 18.0666H73.3851V16.311H74.308C75.0063 16.311 75.3847 16.6233 75.3847 17.1888C75.3847 17.7477 75.0063 18.0666 74.308 18.0666ZM64.6312 16.2854C65.1952 16.2854 65.5223 16.4997 65.5223 16.9156C65.5223 17.3319 65.1952 17.5529 64.6312 17.5529H63.5165V16.2854H64.6312Z" fill="#59C8F7"/>
<path fill-rule="evenodd" clip-rule="evenodd" d="M8.92134 1.38265C3.10213 -0.420896 1.04842 2.9306 2.76502 11.4318C2.8927 12.0654 3.29631 13.5828 3.82255 15.0131C4.70129 17.3991 5.59537 18.4721 6.18798 18.0683C6.66311 17.7414 7.20983 14.9468 7.455 14.1958C7.69515 14.9672 7.79734 18.3851 6.97473 19.1667C5.0283 21.0061 2.4432 16.219 1.68194 13.8535C-0.714208 6.45057 -2.14982 -2.97022 8.92134 1.38265Z" fill="#666666"/>
<path d="M71.7284 10.6674C74.6751 10.6674 76.1041 9.19377 76.1041 7.46997C76.1041 3.68345 70.1077 4.99451 70.1077 3.09433C70.1077 2.44572 70.6527 1.91556 72.0674 1.91556C72.9805 1.91556 73.9675 2.18064 74.9253 2.72568L75.6621 0.913683C74.7043 0.309687 73.3784 0 72.0817 0C69.1499 0 67.7353 1.45872 67.7353 3.21175C67.7353 7.04287 73.7322 5.71643 73.7322 7.64686C73.7322 8.28009 73.1574 8.7518 71.7428 8.7518C70.5056 8.7518 69.2089 8.30982 68.3393 7.67609L67.5292 9.47372C68.4429 10.1808 70.0928 10.6674 71.7284 10.6674ZM62.0916 8.48672C61.8414 8.67797 61.5025 8.78102 61.1636 8.78102C60.5448 8.78102 60.1766 8.41288 60.1766 7.73505V4.50844H62.1506V2.74054H60.1766V0.81063H57.878V2.74054H56.6552V4.50844H57.878V7.76479C57.878 9.65061 58.9681 10.6084 60.8396 10.6084C61.5466 10.6084 62.2393 10.4464 62.7105 10.1075L62.0916 8.48672ZM82.0718 8.48672C81.821 8.67797 81.4821 8.78102 81.1432 8.78102C80.5243 8.78102 80.1562 8.41288 80.1562 7.73505V4.50844H82.1307V2.74054H80.1562V0.81063H77.8576V2.74054H76.6348V4.50844H77.8576V7.76479C77.8576 9.65061 78.9482 10.6084 80.8191 10.6084C81.5267 10.6084 82.2189 10.4464 82.6906 10.1075L82.0718 8.48672ZM87.1847 2.44572C85.9172 2.44572 84.6354 2.78464 83.7663 3.40351L84.5913 5.00938C85.1661 4.55253 86.0351 4.27258 86.875 4.27258C88.1127 4.27258 88.7019 4.84736 88.7019 5.83436H86.875C84.459 5.83436 83.4715 6.80701 83.4715 8.20677C83.4715 9.57679 84.5764 10.6084 86.433 10.6084C87.5969 10.6084 88.4219 10.2249 88.8495 9.50346V10.4905H91.0004V5.96716C91.0004 3.56553 89.6007 2.44572 87.1847 2.44572ZM45.8843 6.55629C45.8843 4.0075 44.0866 2.44572 41.7588 2.44572C39.3423 2.44572 37.5303 4.15517 37.5303 6.52706C37.5303 8.8846 39.3131 10.6084 42.0531 10.6084C43.4826 10.6084 44.5876 10.1664 45.3244 9.32657L44.1015 8.00014C43.5559 8.51594 42.9519 8.76667 42.1121 8.76667C40.9041 8.76667 40.0642 8.16216 39.8432 7.17515H45.8396C45.8545 6.9839 45.8843 6.73318 45.8843 6.55629ZM26.1113 10.4905H30.7967C34.1704 10.4905 36.4839 8.45698 36.4839 5.33342C36.4839 2.20987 34.1704 0.17689 30.7967 0.17689H26.1113V10.4905ZM95.2715 3.60962V2.56365H93.077V10.4905H95.3792V6.74805C95.3792 5.23036 96.2149 4.53818 97.4814 4.53818C97.6608 4.53818 97.8095 4.55253 97.9992 4.5674V2.44572C96.7789 2.44572 95.8355 2.84361 95.2715 3.60962ZM52.2344 2.44572C51.1592 2.44572 50.2307 2.81386 49.6118 3.49169V2.56365H47.4168V10.4905H49.7154V6.57116C49.7154 5.11244 50.5106 4.43461 51.6156 4.43461C52.6323 4.43461 53.222 5.02425 53.222 6.30607V10.4905H55.52V5.95229C55.52 3.5363 54.1059 2.44572 52.2344 2.44572ZM87.0078 9.06097C86.1972 9.06097 85.7111 8.67797 85.7111 8.10371C85.7111 7.57303 86.05 7.17515 87.1257 7.17515H88.7019V7.98578C88.4368 8.7077 87.7738 9.06097 87.0078 9.06097ZM28.4981 8.53081V2.13655H30.6787C32.7265 2.13655 34.0674 3.35941 34.0674 5.33342C34.0674 7.30795 32.7265 8.53081 30.6787 8.53081H28.4981ZM41.7732 4.18439C42.8048 4.18439 43.5559 4.83249 43.718 5.83436H39.8135C39.976 4.81813 40.7272 4.18439 41.7732 4.18439Z" fill="#666666"/>
<path fill-rule="evenodd" clip-rule="evenodd" d="M15.019 1.41384C16.8275 2.74222 17.2004 6.02207 16.1481 11.2639C16.0203 11.8974 15.6167 13.4147 15.0905 14.8451C13.7673 18.4266 12.4134 19.0499 12.1119 16.1737C12.0966 16.0254 12.0813 15.8619 12.0762 15.6882C11.8616 11.5551 9.00062 9.52674 7.28402 13.7007C7.75405 13.0315 8.16795 12.5717 8.5255 12.2754C11.2078 10.0632 10.9114 17.3128 11.2588 18.0229C13.2308 22.0335 16.3729 16.3421 17.2311 13.6905C19.1469 7.76421 20.4446 0.560594 15.2285 0.136587C12.5155 -0.088184 9.77208 2.64503 4.28516 2.10364C9.61367 4.09094 13.5935 0.366456 15.019 1.41384Z" fill="#59C8F7"/>
</svg>
