<svg width="178" height="36" viewBox="0 0 178 36" fill="none" xmlns="http://www.w3.org/2000/svg">
<path d="M157.811 35.6017C159.833 35.6017 161.332 34.1513 161.332 32.1942C161.332 30.2492 159.833 28.7876 157.811 28.7876C155.801 28.7876 154.29 30.2492 154.29 32.1942C154.29 34.1513 155.801 35.6017 157.811 35.6017ZM125.774 35.6017C127.796 35.6017 129.295 34.1513 129.295 32.1942C129.295 30.2492 127.796 28.7876 125.774 28.7876C123.764 28.7876 122.253 30.2492 122.253 32.1942C122.253 34.1513 123.764 35.6017 125.774 35.6017ZM47.3494 35.531H50.1032C52.3113 35.531 53.6938 34.1866 53.6938 32.1942C53.6938 30.2138 52.3113 28.8694 50.1032 28.8694H47.3494V35.531ZM88.0551 35.531H92.5514V34.8235H88.891V28.8694H88.0551V35.531ZM99.2334 35.531H103.731V34.8235H100.07V28.8694H99.2334V35.531ZM57.4704 34.8235V32.501H60.8631V31.8055H57.4704V29.5769H61.2703V28.8694H56.6337V35.531H61.4098V34.8235H57.4704ZM137.638 35.531L136.034 33.2671C136.975 32.937 137.533 32.2063 137.533 31.1687C137.533 29.7071 136.476 28.8694 134.791 28.8694H132.235V35.531H133.071V33.4558H134.791C134.942 33.4558 135.093 33.4437 135.244 33.4326L136.732 35.531H137.638ZM169.671 35.531L168.072 33.2671C169.011 32.937 169.569 32.2063 169.569 31.1687C169.569 29.7071 168.509 28.8694 166.826 28.8694H164.27V35.531H165.106V33.4558H166.826C166.975 33.4558 167.133 33.4437 167.282 33.4326L168.77 35.531H169.671ZM145.505 35.531H146.341L143.309 28.8694H142.484L139.451 35.531H140.288L141.054 33.8091H144.738L145.505 35.531ZM74.7729 35.531H75.6097V29.5769H77.9219V28.8694H72.4607V29.5769H74.7729V35.531ZM149.49 35.531H150.327V29.5769H152.639V28.8694H147.178V29.5769H149.49V35.531ZM69.1954 28.8694V34.0685L65.0702 28.8694H64.3728V35.531H65.2096V30.3319L69.3349 35.531H70.0322V28.8694H69.1954ZM118.662 32.0882C119.266 31.8288 119.638 31.3221 119.638 30.5792C119.638 29.5063 118.778 28.8694 117.268 28.8694H114.34V35.531H117.453C119.139 35.531 119.998 34.882 119.998 33.7385C119.998 32.8543 119.522 32.289 118.662 32.0882ZM111.086 35.531H111.922L108.89 28.8694H108.065L105.032 35.531H105.868L106.635 33.8091H110.319L111.086 35.531ZM84.801 35.531H85.6378L82.605 28.8694H81.7794L78.7466 35.531H79.5833L80.3504 33.8091H84.034L84.801 35.531ZM177.704 28.8694H176.849L174.59 32.5484L172.34 28.8694H171.438L174.162 33.3377V35.531H174.989V33.3619L177.704 28.8694ZM157.811 34.8709C156.277 34.8709 155.127 33.7385 155.127 32.2063C155.127 30.662 156.277 29.5305 157.811 29.5305C159.345 29.5305 160.495 30.662 160.495 32.2063C160.495 33.7385 159.345 34.8709 157.811 34.8709ZM117.419 34.8709H115.177V32.4889H117.419C118.546 32.4889 119.15 32.8431 119.15 33.6799C119.15 34.4934 118.546 34.8709 117.419 34.8709ZM125.774 34.8709C124.24 34.8709 123.09 33.7385 123.09 32.2063C123.09 30.662 124.24 29.5305 125.774 29.5305C127.308 29.5305 128.458 30.662 128.458 32.2063C128.458 33.7385 127.308 34.8709 125.774 34.8709ZM48.1861 34.8235V29.5769H50.0679C51.8344 29.5769 52.8571 30.6266 52.8571 32.1942C52.8571 33.7738 51.8344 34.8235 50.0679 34.8235H48.1861ZM80.6525 33.1258L82.1978 29.6718L83.7318 33.1258H80.6525ZM106.937 33.1258L108.483 29.6718L110.016 33.1258H106.937ZM141.356 33.1258L142.902 29.6718L144.436 33.1258H141.356ZM166.78 32.7604H165.106V29.5769H166.78C168.044 29.5769 168.732 30.1432 168.732 31.1687C168.732 32.1821 168.044 32.7604 166.78 32.7604ZM134.745 32.7604H133.071V29.5769H134.745C136.011 29.5769 136.697 30.1432 136.697 31.1687C136.697 32.1821 136.011 32.7604 134.745 32.7604ZM117.198 29.5305C118.221 29.5305 118.814 29.9191 118.814 30.6731C118.814 31.4281 118.221 31.8288 117.198 31.8288H115.177V29.5305H117.198Z" fill="#59C8F7"/>
<path fill-rule="evenodd" clip-rule="evenodd" d="M16.1771 2.50723C5.62512 -0.763158 1.9011 5.31415 5.01384 20.7294C5.24536 21.8784 5.97723 24.6298 6.93147 27.2235C8.5249 31.55 10.1461 33.4956 11.2207 32.7634C12.0823 32.1708 13.0737 27.1032 13.5182 25.7414C13.9537 27.1402 14.139 33.338 12.6473 34.7553C9.11786 38.0905 4.43028 29.4101 3.04989 25.1207C-1.29508 11.6969 -3.8983 -5.38587 16.1771 2.50723Z" fill="#666666"/>
<path d="M130.067 19.3432C135.41 19.3432 138.002 16.6711 138.002 13.5454C138.002 6.67924 127.128 9.05659 127.128 5.61097C127.128 4.43485 128.117 3.4735 130.682 3.4735C132.338 3.4735 134.127 3.95418 135.864 4.9425L137.2 1.65679C135.463 0.561557 133.059 0 130.708 0C125.392 0 122.826 2.64511 122.826 5.82389C122.826 12.7709 133.701 10.3657 133.701 13.8661C133.701 15.0144 132.658 15.8697 130.093 15.8697C127.85 15.8697 125.499 15.0683 123.922 13.9191L122.453 17.1788C124.11 18.4609 127.101 19.3432 130.067 19.3432ZM112.593 15.389C112.139 15.7358 111.525 15.9227 110.91 15.9227C109.788 15.9227 109.12 15.2552 109.12 14.026V8.1752H112.7V4.96945H109.12V1.46992H104.952V4.96945H102.735V8.1752H104.952V14.08C104.952 17.4995 106.929 19.2363 110.322 19.2363C111.604 19.2363 112.861 18.9425 113.715 18.3279L112.593 15.389ZM148.823 15.389C148.368 15.7358 147.754 15.9227 147.139 15.9227C146.017 15.9227 145.349 15.2552 145.349 14.026V8.1752H148.93V4.96945H145.349V1.46992H141.181V4.96945H138.964V8.1752H141.181V14.08C141.181 17.4995 143.159 19.2363 146.551 19.2363C147.835 19.2363 149.09 18.9425 149.945 18.3279L148.823 15.389ZM158.094 4.43485C155.796 4.43485 153.472 5.04941 151.896 6.17161L153.392 9.08354C154.434 8.25515 156.01 7.74751 157.533 7.74751C159.777 7.74751 160.845 8.78976 160.845 10.5795H157.533C153.152 10.5795 151.361 12.3432 151.361 14.8814C151.361 17.3657 153.365 19.2363 156.731 19.2363C158.842 19.2363 160.338 18.5409 161.113 17.2327V19.0225H165.013V10.8203C165.013 6.4654 162.475 4.43485 158.094 4.43485ZM83.2038 11.8886C83.2038 7.26684 79.9441 4.43485 75.7231 4.43485C71.3412 4.43485 68.0556 7.53461 68.0556 11.8356C68.0556 16.1105 71.2883 19.2363 76.2568 19.2363C78.8489 19.2363 80.8525 18.4349 82.1885 16.912L79.971 14.5067C78.9818 15.442 77.8866 15.8967 76.3637 15.8967C74.1732 15.8967 72.6503 14.8005 72.2496 13.0108H83.1229C83.1498 12.664 83.2038 12.2093 83.2038 11.8886ZM47.3494 19.0225H55.8453C61.963 19.0225 66.158 15.3351 66.158 9.67115C66.158 4.00718 61.963 0.320755 55.8453 0.320755H47.3494V19.0225ZM172.758 6.54536V4.64869H168.779V19.0225H172.953V12.2363C172.953 9.48427 174.469 8.22912 176.765 8.22912C177.091 8.22912 177.36 8.25515 177.704 8.28211V4.43485C175.492 4.43485 173.781 5.15633 172.758 6.54536ZM94.7186 4.43485C92.7689 4.43485 91.0852 5.10241 89.963 6.33152V4.64869H85.9827V19.0225H90.1508V11.9155C90.1508 9.27043 91.5928 8.04131 93.5964 8.04131C95.4401 8.04131 96.5093 9.11051 96.5093 11.4349V19.0225H100.676V10.7933C100.676 6.41241 98.1121 4.43485 94.7186 4.43485ZM157.773 16.4303C156.304 16.4303 155.422 15.7358 155.422 14.6945C155.422 13.7322 156.037 13.0108 157.987 13.0108H160.845V14.4807C160.365 15.7898 159.162 16.4303 157.773 16.4303ZM51.6773 15.469V3.87423H55.6314C59.3448 3.87423 61.7761 6.09165 61.7761 9.67115C61.7761 13.2516 59.3448 15.469 55.6314 15.469H51.6773ZM75.7492 7.5876C77.6198 7.5876 78.9818 8.76279 79.2756 10.5795H72.1956C72.4904 8.73676 73.8525 7.5876 75.7492 7.5876Z" fill="#666666"/>
<path fill-rule="evenodd" clip-rule="evenodd" d="M27.2324 2.56383C30.5117 4.97258 31.1879 10.92 29.2798 20.4251C29.0481 21.5738 28.3162 24.3251 27.362 26.9189C24.9625 33.4131 22.5076 34.5435 21.9609 29.3279C21.9332 29.0592 21.9053 28.7627 21.8961 28.4477C21.507 20.953 16.3192 17.275 13.2064 24.8437C14.0587 23.6303 14.8093 22.7964 15.4576 22.2592C20.3214 18.2478 19.7839 31.3935 20.4139 32.6813C23.9897 39.9536 29.6873 29.6333 31.2435 24.8252C34.7175 14.079 37.0706 1.01662 27.6122 0.247766C22.6927 -0.159814 17.718 4.79635 7.76855 3.81463C17.4308 7.41822 24.6475 0.664589 27.2324 2.56383Z" fill="#59C8F7"/>
</svg>
