<svg width="1201" height="1193" viewBox="0 0 1201 1193" fill="none" xmlns="http://www.w3.org/2000/svg">
<path d="M1334.35 734.815C1487.68 692.735 1435.87 548.632 1390.8 481.841C1250.89 277.049 1174.85 439.012 945.499 228.33C716.145 17.6484 742.057 122.461 266.421 433.093C-209.216 743.726 239.385 882.187 320.536 817.428C401.688 752.669 488.151 822.79 570.209 988.924C652.267 1155.06 1032.47 1030.42 1022.17 878.518C1011.87 726.617 1142.7 787.415 1334.35 734.815Z" stroke="#59C8F7" stroke-opacity="0.3"/>
<path d="M1276.8 721.374C1414.97 683.377 1368.32 553.382 1327.72 493.134C1201.68 308.406 1133.13 454.541 926.497 264.518C719.863 74.4955 743.191 169.05 314.511 449.398C-114.168 729.745 290.052 854.565 363.194 796.123C436.337 737.682 514.236 800.926 588.146 950.79C662.055 1100.65 1004.69 988.127 995.443 851.087C986.194 714.047 1104.08 768.87 1276.8 721.374Z" stroke="#59C8F7" stroke-opacity="0.3"/>
<path d="M1232.23 710.71C1358.59 676.029 1315.89 557.268 1278.75 502.223C1163.44 333.445 1100.78 466.925 911.757 293.293C722.736 119.661 744.091 206.042 352.098 462.048C-39.895 718.053 329.817 832.165 396.697 778.794C463.578 725.423 534.836 783.214 602.464 920.132C670.091 1057.05 983.429 954.33 974.941 829.141C966.452 703.953 1074.28 754.06 1232.23 710.71Z" stroke="#59C8F7" stroke-opacity="0.3"/>
<path d="M1189.73 701.985C1304.93 670.331 1266.02 561.996 1232.17 511.786C1127.08 357.834 1069.94 479.611 897.657 321.241C725.374 162.871 744.829 241.669 387.462 475.266C30.0949 708.863 367.099 812.909 428.073 764.213C489.048 715.516 553.996 768.225 615.625 893.119C677.254 1018.01 962.899 924.264 955.179 810.061C947.458 695.859 1045.74 741.554 1189.73 701.985Z" stroke="#59C8F7" stroke-opacity="0.3"/>
<path d="M1143.98 691.087C1247.08 662.693 1212.29 565.623 1182 520.638C1088 382.706 1036.83 491.845 882.688 349.971C728.546 208.096 745.938 278.703 426.063 488.117C106.189 697.531 407.758 790.686 462.337 747.034C516.916 703.382 575.028 750.599 630.151 862.503C685.274 974.406 940.929 890.327 934.047 787.991C927.166 685.655 1015.11 726.579 1143.98 691.087Z" stroke="#59C8F7" stroke-opacity="0.3"/>
<path d="M1095.89 679.589C1186.25 654.747 1155.74 569.749 1129.19 530.355C1046.77 409.569 1001.94 505.118 866.814 380.869C731.687 256.619 746.944 318.443 466.622 501.742C186.301 685.04 450.634 766.66 498.463 728.449C546.292 690.238 597.234 731.591 645.568 829.581C693.902 927.571 917.96 854.001 911.91 764.397C905.86 674.794 982.947 710.642 1095.89 679.589Z" stroke="#59C8F7" stroke-opacity="0.3"/>
</svg>
