<svg width="610" height="1272" viewBox="0 0 610 1272" fill="none" xmlns="http://www.w3.org/2000/svg">
<path d="M358.924 871.915C433.327 984.603 319.585 1047.67 253.414 1065.12C49.4263 1117.65 91.4898 971.629 -172.935 977.87C-437.361 984.111 -362.151 931.653 -492.173 467.028C-622.195 2.40301 -258.121 164.996 -242.518 251.782C-226.915 338.567 -132.437 342.157 12.9584 281.945C158.353 221.732 331.492 514.126 239.904 605.403C148.316 696.681 265.921 731.056 358.924 871.915Z" stroke="#59C8F7" stroke-opacity="0.3"/>
<path d="M314.632 848.292C381.642 949.893 279.087 1006.83 219.434 1022.6C35.5392 1070.08 73.5255 938.359 -164.823 944.117C-403.172 949.875 -335.354 902.525 -452.326 483.525C-569.297 64.5261 -241.21 210.997 -227.188 289.264C-213.167 367.532 -128.008 370.724 3.07662 316.345C134.161 261.966 290.081 525.602 207.481 607.973C124.882 690.345 230.871 721.291 314.632 848.292Z" stroke="#59C8F7" stroke-opacity="0.3"/>
<path d="M280.192 830.164C341.511 923.034 247.771 975.01 193.237 989.389C25.1216 1032.68 59.788 912.342 -158.136 917.485C-376.061 922.629 -314.077 879.396 -421.234 496.478C-528.391 113.561 -228.341 247.561 -215.482 319.084C-202.624 390.608 -124.76 393.567 -4.93334 343.943C114.893 294.32 257.584 535.293 182.102 610.519C106.621 685.745 203.544 714.075 280.192 830.164Z" stroke="#59C8F7" stroke-opacity="0.3"/>
<path d="M248.162 811.956C304.038 896.643 218.556 944.08 168.831 957.212C15.5415 996.754 47.1861 886.98 -151.504 891.741C-350.194 896.501 -293.668 857.049 -391.245 507.824C-488.821 158.6 -215.3 280.726 -203.598 345.959C-191.897 411.191 -120.907 413.865 -11.642 368.565C97.6232 323.266 227.643 543.012 158.8 611.65C89.957 680.287 178.316 706.096 248.162 811.956Z" stroke="#59C8F7" stroke-opacity="0.3"/>
<path d="M212.835 793.315C262.809 869.15 186.26 911.693 141.738 923.485C4.49198 958.993 32.8808 860.636 -144.989 865.01C-322.858 869.384 -272.234 834.01 -359.392 521.217C-446.55 208.423 -201.761 317.677 -191.322 376.108C-180.883 434.539 -117.335 436.895 -19.4957 396.254C78.3432 355.613 194.615 552.398 132.949 613.924C71.2833 675.449 150.368 698.521 212.835 793.315Z" stroke="#59C8F7" stroke-opacity="0.3"/>
<path d="M175.679 773.749C219.501 840.185 152.442 877.41 113.434 887.719C-6.81457 918.758 18.0202 832.631 -137.839 836.387C-293.697 840.144 -249.352 809.185 -325.857 535.211C-402.361 261.236 -187.816 357.021 -178.644 408.198C-169.472 459.375 -113.786 461.465 -28.0703 425.913C57.6453 390.362 159.613 562.751 105.603 616.608C51.5932 670.465 120.902 690.704 175.679 773.749Z" stroke="#59C8F7" stroke-opacity="0.3"/>
</svg>
