<svg width="1080" height="208" viewBox="0 0 1080 208" fill="none" xmlns="http://www.w3.org/2000/svg">
<path d="M498.793 174.449C499.207 178.113 499.587 183.215 500.406 188.247C501.224 193.287 505.345 195.31 510.106 193.349C518.076 190.066 522.827 183.622 526.273 176.258C529.324 169.742 531.598 162.868 534.331 156.199C536.568 150.735 538.463 145.286 537.448 139.202C537.016 136.606 536.866 133.878 537.154 131.273C537.435 128.734 536.277 127.757 534.198 127.227C523.691 124.557 513.233 125.036 502.809 127.739C501.199 128.157 500.825 129.095 500.764 130.745C500.585 135.648 500.079 140.538 499.743 145.437C499.655 146.702 499.681 147.979 499.726 149.249C499.835 152.333 500.204 155.425 500.069 158.495C499.857 163.332 499.317 168.153 498.793 174.449ZM576.093 135.28C576.173 135.267 576.253 135.255 576.334 135.243C576.397 134.055 576.31 132.836 576.556 131.687C577.129 128.996 575.891 127.694 573.382 127.364C568.282 126.692 563.18 125.668 558.066 125.591C553.33 125.522 548.546 126.31 543.846 127.095C541.572 127.477 538.61 128.293 538.63 131.179C538.675 137.736 538.478 144.398 540.957 150.674C543.17 156.276 545.832 161.718 547.751 167.412C550.227 174.759 553.141 181.636 558.711 187.396C561.45 190.227 564.37 192.26 567.909 193.593C572.096 195.169 576.087 193.313 576.686 188.9C577.579 182.325 578.064 175.655 578.109 169.021C578.159 161.936 576.238 154.891 577.66 147.738C577.914 146.457 577.45 145.026 577.268 143.668C576.894 140.869 576.486 138.076 576.093 135.28ZM600.935 122.51C595.102 122.46 589.327 122.813 583.899 125.232C580.004 126.968 578.794 128.998 579.155 133.206C579.341 135.392 579.656 137.567 579.872 139.752C580.728 148.395 583.18 156.347 589.186 163.025C590.689 164.698 591.65 167.099 592.199 169.326C593.418 174.279 594.329 179.316 595.165 184.351C596.215 190.669 601.64 193.878 605.101 198.476C605.479 198.979 606.399 199.135 607.099 199.334C611.871 200.686 616.68 197.493 618.574 191.908C623.722 176.729 622.897 160.684 625.492 145.132C626.151 141.189 625.923 137.104 626.199 133.089C626.525 128.367 626.409 128.001 622.017 126.178C615.278 123.383 608.171 122.558 600.935 122.51ZM476.806 121.945C468.826 122.598 461.104 123.456 453.847 126.855C451.552 127.928 450.597 129.37 450.917 132.013C451.926 140.333 452.661 148.684 453.589 157.014C454.631 166.355 455.546 175.72 456.957 185.007C457.662 189.648 458.791 194.358 462.775 197.706C466.319 200.684 471.071 200.35 473.962 196.759C475.051 195.402 476.072 193.944 477.37 192.808C480.13 190.389 481.357 187.344 482.267 183.865C484.651 174.758 485.027 165.188 491.976 157.329C497.45 151.138 497.293 142.369 498.014 134.344C498.543 128.451 497.196 126.033 491.402 124.501C486.645 123.244 481.68 122.768 476.806 121.945ZM710.77 117.4C707.853 118.419 704.846 119.248 702.028 120.499C696.745 122.846 691.536 125.372 686.384 127.991C685.538 128.421 684.719 129.658 684.596 130.613C683.868 136.253 686.369 141.1 688.655 146.017C689.876 148.647 691.351 151.376 691.654 154.174C692.544 162.467 695.213 170.22 698.102 177.93C699.868 182.648 702.397 186.572 707.498 188.775C715.077 192.049 719.153 191.021 722.581 183.49C725.308 177.503 727.727 171.362 729.967 165.177C731.861 159.948 733.201 154.521 734.981 149.247C736.318 145.283 738.213 141.495 739.414 137.497C741.658 130.018 741.327 129.813 733.896 126.845C728.717 124.776 723.718 122.268 718.58 120.092C716.153 119.065 713.59 118.359 710.77 117.4ZM393.504 132.158C392.826 130.903 392.416 128.794 391.211 128.149C385.634 125.164 379.807 122.642 374.125 119.844C368.513 117.082 363.175 117.571 357.779 120.537C354.424 122.382 350.86 123.861 347.359 125.436C344.347 126.79 341.201 127.885 338.308 129.448C337.424 129.927 336.496 131.777 336.758 132.654C338.403 138.142 340.366 143.538 342.256 148.953C342.615 149.984 343.193 150.942 343.547 151.977C346.702 161.221 349.736 170.507 353.024 179.705C353.967 182.341 355.428 184.854 357 187.192C358.745 189.785 361.413 191.316 364.612 190.555C370.518 189.151 375.836 186.684 378.123 180.483C380.178 174.911 382.671 169.392 383.828 163.625C385.488 155.348 387.427 147.295 391.386 139.754C392.501 137.628 392.731 135.043 393.504 132.158ZM334.033 133.029C333.171 131.332 332.842 129.335 331.799 128.849C324.477 125.433 317.079 122.145 309.557 119.186C304.469 117.185 299.474 118.172 294.7 120.827C291.591 122.557 288.28 123.932 285.025 125.391C281.761 126.854 278.368 128.062 275.22 129.732C274.335 130.202 273.589 131.947 273.684 133.03C273.956 136.111 274.546 139.189 275.3 142.198C275.842 144.355 276.351 146.851 277.766 148.383C279.738 150.519 280.928 152.789 281.605 155.486C282.207 157.88 282.78 160.284 283.506 162.643C285.988 170.704 288.554 178.606 295.116 184.706C299.578 188.855 303.986 190.689 309.76 188.043C310.67 187.627 311.677 187.376 312.667 187.184C316.457 186.45 318.656 184.001 319.613 180.505C320.866 175.925 322.028 171.306 322.92 166.644C324.259 159.641 325.465 152.752 329.307 146.398C331.695 142.446 332.499 137.551 334.033 133.029ZM743.988 132.824C744.452 138.151 746.07 143.12 748.622 147.887C750.289 151.002 751.837 154.3 752.685 157.702C754.274 164.082 755.297 170.602 756.592 177.056C757.749 182.826 760.556 187.049 766.976 187.894C768.152 188.049 769.335 188.386 770.437 188.83C773.85 190.204 776.701 189.19 779.408 187.048C784.717 182.846 788.838 177.784 790.956 171.308C792.49 166.616 793.833 161.863 795.342 157.162C796.088 154.837 796.45 152.05 797.991 150.4C800.467 147.748 801.939 145.061 802.131 141.465C802.248 139.296 802.855 137.141 803.34 135.003C804.255 130.971 804.046 130.262 800.317 128.559C793.567 125.476 786.781 122.465 779.962 119.535C774.273 117.09 768.8 118.287 763.43 120.778C758.011 123.292 752.621 125.891 747.075 128.102C744.656 129.067 743.647 130.335 743.988 132.824ZM447.569 133.123C448.319 130.733 447.245 129.382 445.097 128.133C442.838 126.816 440.953 124.869 438.89 123.218C437.965 122.479 437.103 121.504 436.036 121.121C429.612 118.804 423.166 119.67 416.809 121.428C413.744 122.276 410.823 123.626 407.783 124.579C404.205 125.703 400.519 126.503 396.992 127.755C396.03 128.095 394.808 129.576 394.836 130.502C395.029 136.982 395.435 143.461 395.938 149.928C396.318 154.818 397.033 159.681 397.436 164.568C398.287 174.846 398.825 185.156 399.914 195.408C400.393 199.918 402.501 203.913 407.583 205.103C413.082 206.39 422.87 202.614 425.528 197.572C430.53 188.082 434.165 178.053 435.94 167.408C436.305 165.22 436.903 162.787 438.211 161.085C444.576 152.805 447.036 143.325 447.569 133.123ZM649.688 119.788C644.13 119.732 641.284 120.662 638.866 122.739C636.382 124.876 633.692 126.776 631.173 128.877C630.472 129.462 629.535 130.439 629.599 131.156C630.333 139.256 630.735 147.507 635.177 154.689C638.505 160.068 641.18 165.362 642.282 171.893C643.54 179.346 647.033 186.439 649.672 193.647C652.219 200.599 657.988 203.671 664.731 205.099C670.855 206.395 675.364 203.555 676.92 197.614C677.821 194.18 678.514 190.632 678.767 187.099C679.904 171.174 679.899 155.175 681.97 139.31C682.229 137.317 682.204 135.29 682.421 133.291C682.889 128.944 682.572 128.359 678.471 126.787C677.616 126.459 676.732 126.189 675.841 125.97C671.649 124.941 667.085 124.649 663.348 122.747C658.743 120.404 654.022 120.266 649.688 119.788ZM742.152 128.615C743.769 127.896 745.672 127.077 747.552 126.213C752.399 123.987 757.282 121.833 762.069 119.487C770.134 115.534 777.8 115.289 785.549 120.595C788.5 122.616 792.301 123.411 795.715 124.765C796.997 125.274 798.294 125.75 799.561 126.295C805.749 128.955 806.29 130.019 804.836 136.383C804.552 137.631 804.321 138.896 804.159 140.164C803.613 144.457 803.063 148.649 799.197 151.633C798.217 152.39 798.066 154.242 797.598 155.612C795.12 162.87 792.94 170.243 790.109 177.36C787.989 182.692 783.442 186.254 778.899 189.604C778.035 190.243 776.967 190.727 775.919 190.989C767.812 192.998 756.99 186.608 755.116 178.522C753.548 171.752 752.41 164.885 750.92 158.097C750.437 155.893 749.512 153.774 748.667 151.663C746.773 146.926 744.804 142.218 742.858 137.502C742.625 136.937 742.352 136.389 741.968 135.551C737.584 148.297 733.387 160.73 729.007 173.098C727.575 177.143 725.815 181.093 723.942 184.961C720.262 192.571 714.884 193.902 707.117 190.664C699.645 187.548 697.021 181.273 694.963 174.638C692.803 167.679 691.7 160.402 689.667 153.399C688.436 149.16 686.313 145.177 684.381 140.577C683.927 141.481 683.673 141.772 683.639 142.085C682.273 154.709 681.178 167.335 681.067 180.061C681.016 185.953 680.039 191.919 678.766 197.698C676.947 205.948 671.2 209.132 663.025 206.999C655.964 205.156 650.454 201.376 647.89 194.262C645.316 187.119 641.9 180.106 640.597 172.732C639.449 166.241 636.816 160.894 633.452 155.543C630.201 150.371 629.392 144.419 628.509 138.526C628.457 138.175 628.327 137.838 628.011 136.674C627.782 138.164 627.633 138.883 627.568 139.61C627.496 140.43 627.559 141.263 627.462 142.078C626.966 146.242 626.37 150.395 625.94 154.566C625.555 158.291 625.594 162.072 625.002 165.76C623.542 174.862 622.235 184.021 620.081 192.97C618.332 200.239 611.667 203.514 605.477 201.122C605.05 200.958 604.477 200.878 604.238 200.562C600.496 195.595 594.683 192.09 593.503 185.304C592.614 180.176 591.541 175.08 590.487 169.983C590.23 168.744 589.971 167.396 589.293 166.374C587.52 163.711 585.298 161.328 583.665 158.591C582.048 155.884 580.931 152.882 578.865 149.974C578.772 152.039 578.512 154.114 578.617 156.171C578.956 162.842 579.734 169.504 579.74 176.17C579.746 180.703 578.986 185.282 578.125 189.757C577.122 194.974 572.291 197.258 567.335 195.374C558.747 192.107 553.595 185.356 549.951 177.576C546.236 169.644 543.421 161.299 540.198 153.14C539.837 152.226 539.399 151.341 538.758 149.911C538.153 151.03 537.726 151.66 537.454 152.35C534.267 160.421 531.389 168.627 527.857 176.547C524.184 184.78 519.017 191.917 510.048 195.357C505.209 197.214 500.593 195.297 499.412 190.308C498.346 185.804 497.687 181.109 497.636 176.489C497.567 170.283 498.297 164.072 498.603 157.858C498.723 155.424 498.622 152.978 498.622 150.538C498.288 150.514 497.955 150.49 497.62 150.467C497.377 150.987 497.175 151.533 496.881 152.026C494.415 156.176 491.871 160.28 489.483 164.474C488.424 166.334 487.348 168.288 486.839 170.335C485.32 176.449 484.169 182.655 482.656 188.769C482.305 190.186 481.193 191.481 480.228 192.669C478.61 194.661 476.746 196.453 475.136 198.45C471.825 202.557 466.08 203.141 461.932 199.835C457.638 196.412 456.14 191.534 455.382 186.582C453.918 177.017 452.977 167.373 451.85 157.758C451.16 151.878 450.533 145.993 449.852 140.112C449.816 139.794 449.547 139.5 449.028 138.513C448.52 140.963 448.063 142.748 447.789 144.561C446.847 150.803 443.803 156.063 440.357 161.225C439.036 163.207 438.014 165.622 437.655 167.961C435.965 178.935 432.46 189.396 426.849 198.83C423.011 205.288 415.964 208.036 408.261 207.491C403.428 207.15 400.115 203.964 399.146 199.467C397.689 192.701 396.868 185.786 396.072 178.902C395.644 175.188 395.81 171.404 395.747 167.652C395.653 162.09 396.023 156.526 394.301 151.054C393.636 148.942 393.997 146.513 393.868 144.23C393.815 143.292 393.701 142.355 393.614 141.417C393.261 141.335 392.909 141.254 392.556 141.172C390.824 145.694 388.29 150.085 387.527 154.763C385.935 164.526 383.08 173.813 378.997 182.751C376.154 188.97 370.378 191.424 364.147 192.415C359.217 193.197 355.933 189.953 353.941 185.878C351.449 180.787 349.197 175.551 347.265 170.226C345.177 164.474 343.703 158.505 341.722 152.711C340.217 148.313 338.322 144.048 336.638 139.71C336.198 138.577 335.9 137.389 334.9 136.261C334.495 137.705 334.172 139.176 333.669 140.585C332.837 142.908 332.308 145.487 330.912 147.437C326.426 153.707 325.854 161.046 324.43 168.2C323.522 172.764 322.427 177.309 321.092 181.765C320.004 185.395 317.49 187.851 313.64 188.814C311.319 189.395 309.047 190.168 306.74 190.803C303.42 191.718 300.439 191.121 297.597 189.094C289.708 183.47 285.365 175.6 282.771 166.572C281.863 163.406 280.943 160.242 280.111 157.058C279.366 154.204 278.438 151.589 276.173 149.391C274.916 148.171 274.292 146.088 273.873 144.282C273.028 140.636 272.646 136.885 271.824 133.233C271.316 130.983 271.939 129.378 273.89 128.429C277.103 126.868 280.429 125.533 283.681 124.048C287.174 122.452 290.711 120.927 294.099 119.131C299.535 116.249 305.163 115.451 310.875 117.771C317.091 120.295 323.128 123.247 329.25 125.996C331.212 126.877 333.197 127.705 335.648 128.763C342.49 125.637 350.063 122.414 357.412 118.748C363.494 115.716 369.308 115.498 375.394 118.539C380.977 121.328 386.667 123.91 392.345 126.505C393.013 126.812 394.146 126.971 394.656 126.619C399.166 123.506 404.522 123.284 409.586 122.029C411.696 121.506 413.675 120.455 415.712 119.643C416.552 119.309 417.372 118.741 418.232 118.675C422.813 118.325 427.402 117.953 431.993 117.884C435.371 117.831 438.224 119.284 440.426 121.917C441.128 122.757 441.903 123.578 442.784 124.22C445.952 126.53 448.489 128.284 453.058 125.342C457.39 122.552 463.193 121.544 468.496 120.825C476.065 119.801 483.814 119.613 491.217 122.144C493.662 122.98 495.77 124.754 498.108 125.954C498.926 126.374 500.092 126.729 500.897 126.478C511.894 123.047 522.977 122.743 534.16 125.364C535.221 125.613 536.18 126.293 537.241 126.534C538.139 126.736 539.166 126.786 540.053 126.568C542.806 125.892 545.475 124.696 548.259 124.348C557.847 123.151 567.375 123.306 576.639 126.587C577.275 126.813 578.434 126.768 578.807 126.36C582.437 122.386 587.363 121.267 592.287 120.746C602.263 119.691 612.187 120.131 621.699 123.794C623.398 124.449 625.134 125.28 626.495 126.443C627.96 127.694 629.144 127.87 630.607 126.734C632.767 125.054 635.079 123.528 637.043 121.646C639.343 119.443 641.886 117.849 645.075 117.904C649.758 117.984 654.435 118.372 659.113 118.647C659.567 118.674 660.117 118.695 660.449 118.944C665.019 122.37 670.68 122.293 675.862 123.753C677.624 124.25 679.557 124.662 680.981 125.696C682.937 127.116 684.691 126.979 686.599 126.067C691.159 123.887 695.806 121.855 700.213 119.396C707.808 115.154 715.002 115.148 722.218 120.262C724.122 121.612 726.534 122.271 728.74 123.18C733.217 125.022 737.714 126.819 742.152 128.615Z" fill="#247DA3"/>
<path d="M195.303 124.814C195.582 121.854 195.841 119.105 196.101 116.35C192.897 115.519 191.378 116.179 189.635 118.987C191.505 120.91 193.324 122.779 195.303 124.814ZM239.199 120.305C235.464 117.638 228.752 117.511 225.77 120.077C225.218 120.553 225.158 122.214 225.55 122.993C226.052 123.991 227.576 125.51 228.078 125.317C231.779 123.896 235.334 122.103 239.199 120.305ZM142.505 112.703C136.252 111.197 130.831 111.931 125.268 112.976C127.443 116.361 129.465 119.507 131.544 122.743C135.012 119.566 138.464 116.404 142.505 112.703ZM44.3993 102.106C47.1502 105.81 49.5835 109.087 51.9924 112.329C55.9394 109.624 59.934 106.885 64.4985 103.756C57.597 101.742 51.355 100.902 44.3993 102.106ZM51.8154 115.305C48.6208 111.227 45.4505 107.031 42.1132 102.971C40.0595 100.474 39.1145 100.704 36.3404 102.506C34.3442 103.805 32.0116 104.79 29.6912 105.345C27.3088 105.916 24.7593 105.9 22.2807 105.94C20.5246 105.97 19.8629 106.617 19.7832 108.366C19.5165 114.211 18.9245 120.045 18.8294 125.89C18.7608 130.068 19.2167 134.262 19.5851 138.435C19.771 140.545 21.0093 141.698 23.2356 142.26C38.9275 146.209 54.6182 150.174 70.2293 154.422C73.9052 155.422 76.2301 154.187 78.442 151.76C84.2835 145.351 87.4106 137.682 89.4621 129.37C91.6165 120.646 88.3069 113.972 82.2729 108.188C76.6948 102.843 70.6874 102.195 64.223 106.366C59.7957 109.222 55.6562 112.517 51.8154 115.305ZM131.126 127.179L130.236 126.794C129.5 124.95 128.779 123.101 128.024 121.266C127.54 120.088 127.186 118.806 126.467 117.784C119.489 107.874 103.915 106.784 95.8081 115.726C94.7812 116.86 93.9867 118.862 94.1837 120.316C95.1707 127.64 96.0748 135.028 97.8928 142.171C99.2727 147.595 101.735 152.803 104.177 157.889C105.861 161.398 108.905 163.614 113.075 164.047C126.903 165.481 140.734 166.906 154.538 168.543C158.133 168.97 160.474 167.848 162.404 164.937C169.177 154.722 173.077 143.543 174.184 131.38C174.582 127.008 173.436 123.171 170.855 119.533C164.677 110.827 156.04 108.298 146.828 113.688C141.751 116.66 137.449 120.955 132.861 124.729C132.114 125.343 131.697 126.352 131.126 127.179ZM224.02 133.187C224.334 131.167 224.674 129.678 224.768 128.174C224.858 126.74 225.236 124.903 224.53 123.924C222.912 121.681 221.052 119.085 218.664 118.039C215.072 116.464 210.968 115.48 207.039 115.332C197.805 114.984 196.482 116.722 197.355 125.912C197.437 126.769 196.974 127.677 196.763 128.563C195.984 128.035 195.108 127.606 194.443 126.962C192.083 124.673 189.901 122.192 187.441 120.02C185.879 118.641 183.866 117.959 181.839 119.278C179.739 120.646 177.761 122.154 177.678 125.011C177.529 130.105 178.137 134.929 180.908 139.486C183.695 144.069 186.237 148.789 186.301 154.519C186.342 158.12 187.074 161.818 188.131 165.281C191.342 175.809 195.369 179.208 205.924 179.425C219.369 179.704 232.81 180.157 246.249 180.627C254.712 180.924 255.833 180.242 258.532 172.263C258.854 171.31 259.118 170.339 259.37 169.365C260.471 165.119 261.443 160.835 262.691 156.631C263.414 154.195 264.283 151.717 265.582 149.552C271.003 140.514 270.757 134.239 264.61 125.569C260.95 120.407 256.104 118.289 250.005 119.852C244.417 121.285 238.94 123.16 233.452 124.952C229.563 126.221 225.79 127.729 225.265 132.604C225.259 132.649 225.115 132.679 224.02 133.187ZM176.305 134.03C174.579 140.043 173.388 145.891 171.2 151.344C169.104 156.565 166.102 161.452 163.253 166.345C161.617 169.154 159.101 170.231 155.55 169.822C142.738 168.351 129.903 166.989 117.044 166.017C108.689 165.387 103.173 161.64 99.9455 153.959C96.6867 146.208 94.8177 138.148 93.4567 129.923C93.1225 127.905 92.7707 125.887 92.4498 124.01C91.1518 128.812 90.0286 133.659 88.516 138.382C86.7311 143.955 83.5023 148.752 79.5021 153.02C76.863 155.834 74.069 156.759 69.9106 155.607C54.2143 151.258 38.3819 147.387 22.5794 143.415C20.0676 142.784 18.3525 141.522 17.9685 138.966C17.5358 136.084 17.008 133.16 17.081 130.268C17.2824 122.402 17.808 114.545 18.1345 106.684C18.1997 105.096 18.9444 104.649 20.3874 104.654C22.7841 104.663 25.1842 104.629 27.5766 104.503C30.3795 104.354 32.9112 103.648 35.1686 101.708C37.1017 100.046 39.421 98.7168 42.2327 100.239C42.7218 100.502 43.5086 100.342 44.1315 100.23C51.604 98.8894 58.7998 100.27 65.947 102.311C67.0723 102.632 68.3172 102.903 69.4525 102.762C75.9202 101.961 81.0623 104.409 85.0846 109.186C87.4803 112.03 89.4267 115.248 91.6475 118.398C92.2052 117.657 92.8614 116.701 93.6005 115.814C99.3623 108.908 108.99 106.577 118.289 110.103C121.19 111.204 123.964 111.29 126.932 110.876C133.066 110.023 139.206 109.344 145.209 111.76C145.892 112.036 146.902 111.994 147.592 111.705C159.952 106.533 168.311 112.458 173.688 121.003C174.161 121.756 174.681 122.48 175.417 123.567C176.193 122.649 176.773 121.998 177.314 121.318C179.537 118.519 182.232 117.073 185.992 117.748C186.926 117.916 188.286 117.247 189.053 116.539C191.282 114.479 193.734 113.956 196.691 114.385C198.741 114.68 200.897 114.602 202.964 114.353C209.982 113.501 216.541 114.406 222.436 118.617C222.973 119 224.188 118.97 224.811 118.63C230.558 115.496 236.029 115.648 241.405 119.526C242.065 120.001 243.266 119.912 244.192 119.827C248.201 119.456 252.2 118.687 256.202 118.687C258.154 118.688 260.497 119.609 261.99 120.887C268.726 126.658 272.502 133.786 270.829 142.941C270.602 144.178 270.245 145.548 269.497 146.509C264.745 152.615 263.666 160.027 261.683 167.15C260.612 170.997 259.162 174.772 257.526 178.42C256.411 180.905 254.284 182.006 251.258 181.906C237.253 181.446 223.24 181.241 209.231 180.86C206.104 180.774 202.973 180.445 199.868 180.045C194.301 179.327 190.839 175.845 188.448 171.089C185.592 165.409 184.595 159.249 184.201 153.033C183.997 149.804 183.071 146.984 181.583 144.211C179.789 140.872 178.089 137.482 176.305 134.03Z" fill="#247DA3"/>
<path d="M881.234 116.239C881.627 119.037 881.994 121.648 882.309 123.894C884.139 122.145 885.99 120.376 887.845 118.603C885.263 115.78 884.493 115.483 881.234 116.239ZM838.435 120.258C842.199 122.009 845.863 123.81 849.644 125.324C850.017 125.472 851.328 123.974 851.791 123.039C852.203 122.21 852.507 120.714 852.056 120.179C849.683 117.356 841.453 117.429 838.435 120.258ZM934.945 112.617C938.936 116.282 942.374 119.438 945.823 122.605C947.982 119.281 950.014 116.151 952.188 112.802C946.575 111.9 941.141 110.989 934.945 112.617ZM1033.17 101.828C1026.16 100.98 1019.79 101.331 1013.11 103.778C1017.52 106.801 1021.41 109.47 1025.36 112.177C1027.81 108.933 1030.26 105.679 1033.17 101.828ZM1025.64 115.092C1021.21 111.974 1016.51 108.507 1011.63 105.311C1008.84 103.485 1005.65 103.144 1002.33 103.979C996.282 105.503 988.675 113.7 987.665 119.869C986.7 125.762 988.103 131.324 990.148 136.762C992.455 142.895 995.447 148.643 1000.48 153.08C1002.04 154.455 1003.62 155.135 1005.98 154.511C1021.98 150.271 1038.03 146.18 1054.09 142.176C1056.2 141.65 1057.43 140.613 1057.74 138.655C1058.21 135.777 1058.76 132.851 1058.68 129.964C1058.48 123.02 1057.79 116.089 1057.58 109.145C1057.51 106.511 1056.67 105.802 1054.07 105.749C1049.15 105.65 1044.09 105.805 1040.12 101.85C1038.65 100.38 1036.92 100.619 1035.47 102.561C1032.21 106.916 1028.77 111.131 1025.64 115.092ZM947.2 126.523C946.893 126.67 946.588 126.817 946.281 126.964C945.623 126.094 945.036 125.156 944.293 124.365C939.676 119.445 934.68 115.015 928.324 112.37C916.862 107.603 902.848 116.501 903.302 128.842C903.54 135.319 904.903 141.957 906.985 148.112C909.041 154.182 912.552 159.787 915.614 165.494C916.866 167.827 918.981 168.91 921.866 168.471C924.957 168.001 928.106 167.932 931.221 167.59C942.3 166.376 953.37 165.078 964.454 163.904C968.526 163.471 971.199 161.156 973.208 157.915C974.361 156.052 975.392 154.088 976.235 152.069C980.547 141.737 982.318 130.823 983.455 119.788C983.557 118.801 983.222 117.518 982.61 116.748C978.127 111.124 972.189 108.683 965.054 109.711C957.59 110.786 951.593 113.993 949.152 121.759C948.638 123.39 947.857 124.937 947.2 126.523ZM853.363 132.424C853.003 132.514 852.646 132.603 852.287 132.692C851.998 131.957 851.806 131.165 851.401 130.5C850.687 129.329 850.098 127.737 849.013 127.19C841.602 123.449 833.838 120.613 825.57 119.401C821.051 118.738 817.201 120.153 814.229 123.683C811.174 127.313 808.752 131.255 808.035 136.045C807.504 139.588 807.576 143.208 809.719 146.101C813.974 151.843 815.182 158.578 817.007 165.182C818.218 169.555 819.844 173.853 821.743 177.974C822.316 179.217 824.448 180.531 825.839 180.502C842.054 180.184 858.264 179.63 874.475 179.104C880.762 178.899 885.177 175.777 887.394 170.029C888.832 166.304 890.195 162.402 890.618 158.475C891.362 151.579 892.519 144.962 896.527 139.088C899.332 134.979 899.952 130.301 899.885 125.449C899.841 122.242 897.806 120.506 895.386 119.058C893.07 117.673 890.963 118.801 889.329 120.27C886.954 122.405 884.938 124.927 882.686 127.206C882.118 127.782 881.241 128.058 880.505 128.472C880.304 127.731 879.944 126.994 879.93 126.25C879.884 123.972 880.11 121.681 879.966 119.411C879.84 117.407 878.788 115.926 876.546 115.772C873.252 115.545 869.901 114.915 866.67 115.285C860.709 115.967 855.359 118.157 852.698 124.117C852.243 125.133 852.41 126.494 852.528 127.672C852.685 129.267 853.074 130.842 853.363 132.424ZM901.792 123.632C903.628 121.105 905.145 118.69 906.983 116.546C912.703 109.873 920.109 108.111 928.444 111.005C929.936 111.524 931.872 111.573 933.379 111.116C939.041 109.399 944.703 109.933 950.37 110.718C953.44 111.142 956.268 110.953 959.28 109.939C968.035 106.99 976.215 107.87 982.95 114.825C984.158 116.074 984.932 117.736 985.563 118.69C987.885 115.432 990.23 111.537 993.175 108.16C996.863 103.932 1001.72 102.213 1007.52 102.508C1010.45 102.656 1013.45 101.578 1016.39 100.925C1021.74 99.739 1027.08 99.0908 1032.56 99.9929C1033.75 100.19 1035.08 99.5303 1036.29 99.7017C1038.13 99.9632 1040.39 100.083 1041.63 101.19C1044.66 103.889 1048.12 104.373 1051.87 104.459C1058.76 104.619 1059.08 104.622 1059.41 111.441C1059.84 120.003 1059.92 128.598 1059.7 137.168C1059.59 141.344 1057.87 142.435 1053.73 143.478C1038.21 147.399 1022.67 151.267 1007.23 155.519C1003.21 156.627 1000.47 155.645 997.877 152.938C991.44 146.226 988.002 138.057 986.191 129.106C985.884 127.594 985.593 126.08 984.824 124.556C984.115 128.595 983.692 132.71 982.627 136.653C981.033 142.548 979.15 148.38 977.097 154.135C974.402 161.69 968.778 165.21 960.752 165.847C947.624 166.891 934.523 168.281 921.429 169.707C918.496 170.026 916.482 169.122 914.703 166.981C910.045 161.373 907.157 154.851 904.958 148.035C903.48 143.449 902.493 138.705 901.089 133.274C898.427 140.852 892.91 146.457 892.882 154.666C892.862 160.755 891.324 166.816 888.207 172.278C885.518 176.989 881.596 179.868 876.017 180.057C858.983 180.636 841.948 181.242 824.909 181.583C823.368 181.614 821.358 180.156 820.307 178.816C816.685 174.199 815.967 168.416 814.585 162.939C813.15 157.251 811.551 151.749 808.166 146.727C804.978 141.998 805.603 136.592 807.551 131.409C808.03 130.133 808.696 128.908 809.414 127.745C814.977 118.724 820.253 116.538 830.576 119.15C833.342 119.85 835.52 119.883 838.199 118.138C842.472 115.353 847.29 115.751 851.894 118.105C852.746 118.542 854.22 118.999 854.778 118.593C861.641 113.603 869.269 113.281 877.241 114.572C878.119 114.714 879.091 114.667 879.953 114.449C883.259 113.609 886.13 114.11 888.553 116.675C889.066 117.22 890.05 117.844 890.65 117.708C896.034 116.488 899.211 119.321 901.792 123.632Z" fill="#247DA3"/>
<path d="M461.481 78.8803C464.27 78.4979 469.491 77.9936 474.619 77.0102C478.46 76.2741 479.211 74.8897 479.039 71.0079C479.024 70.6453 478.969 70.2629 479.054 69.919C480.811 62.8575 478.175 56.8332 474.622 50.989C473.829 49.6837 473.045 48.2609 472.743 46.7941C471.546 40.9818 470.097 35.1695 469.563 29.2836C468.581 18.4787 460.413 16.2966 452.072 17.0602C447.938 17.4393 445.275 20.8256 443.632 24.3382C441.513 28.8672 439.643 33.5895 438.383 38.4129C436.862 44.2384 436.077 50.2309 432.703 55.4619C432.007 56.5398 431.671 58.1022 431.777 59.3921C432.131 63.6651 432.653 67.9314 433.334 72.1659C433.666 74.2403 435.007 75.5193 437.379 75.4654C438.459 75.4402 439.661 75.5215 440.616 75.9643C446.494 78.688 452.781 78.5276 461.481 78.8803ZM618.852 78.8506C627.83 78.5551 634.3 78.6693 640.331 75.8302C641.044 75.494 641.96 75.4094 642.761 75.4698C645.674 75.6929 647.042 74.0459 647.48 71.5386C648.016 68.4808 648.335 65.3835 648.691 62.2971C649.09 58.8339 648.279 55.7201 646.58 52.5932C645.13 49.9287 644.235 46.8776 643.585 43.8923C642.045 36.8121 640.412 29.778 636.573 23.5175C632.896 17.5184 628.334 15.7934 622.183 17.1591C615.824 18.5699 611.961 21.7496 611.231 28.5815C610.151 38.6657 608.287 48.5191 602.803 57.4814C600.364 61.4676 600.74 66.3196 601.475 71.0793C602.08 75.0117 602.366 76.3763 606.346 77.108C611.301 78.0189 616.335 78.5111 618.852 78.8506ZM705.008 61.3665C705.482 56.2168 704.55 50.5946 702.406 45.1262C701.646 43.1858 701.1 41.1345 700.712 39.0854C699.708 33.7917 699.104 28.4112 697.849 23.1813C696.76 18.6424 694.979 14.3628 690.845 11.3974C685.222 7.36283 679.4 6.40474 672.571 8.05833C666.466 9.53832 663.811 13.2103 662.832 18.8116C661.967 23.768 661.307 28.7694 660.213 33.6752C659.366 37.479 658.75 41.6564 656.693 44.8043C652.071 51.879 650.154 59.3844 650.31 67.6655C650.443 74.7534 653.526 79.6164 660.248 82.2962C663.05 83.4136 665.588 85.1738 668.345 86.4264C669.849 87.1109 671.573 87.7635 673.176 87.7152C682.337 87.4372 690.306 83.7191 697.638 78.6045C702.452 75.2457 706.426 71.2353 705.029 64.5331C704.866 63.7431 705.008 62.8894 705.008 61.3665ZM375.564 61.4929C375.564 63.9101 375.723 65.5758 375.53 67.2008C375.176 70.1915 376.338 72.3923 378.363 74.5392C383.631 80.124 390.332 83.3939 397.325 85.9715C400.791 87.2493 404.728 87.2933 408.467 87.8009C409.242 87.9053 410.184 87.7932 410.863 87.4361C415.17 85.1705 419.421 82.8017 423.697 80.48C427.265 78.5419 429.372 75.5863 429.851 71.5781C430.993 62.0148 429.807 52.9601 423.864 44.9471C423.229 44.089 422.701 43.0419 422.482 42.008C420.853 34.3213 419.132 26.6455 417.807 18.905C416.729 12.6126 413.399 9.25924 407.042 7.84627C396.9 5.59388 387.497 10.0525 383.912 19.7246C382.806 22.711 382.051 25.8501 381.4 28.9738C380.36 33.9697 379.993 39.148 378.516 44.0011C376.688 50.0068 374.861 55.9014 375.564 61.4929ZM768.845 58.3769C769.451 52.4855 768.213 46.3798 766.065 40.3434C765.131 37.7142 764.85 34.8399 764.425 32.0535C763.738 27.5432 763.254 23.0022 762.548 18.4941C760.383 4.67644 748.2 0.0507835 738.074 3.96995C737.221 4.30067 736.33 4.56437 735.434 4.75774C729.466 6.04436 725.504 9.69983 723.043 15.1023C722.134 17.0976 721.31 19.1324 720.511 21.1739C718.985 25.0722 718.013 29.2847 715.909 32.8402C710.308 42.3036 707.644 52.3009 708.818 63.2322C709.234 67.1019 710.203 67.8787 714.041 68.8599C722.357 70.9859 730.651 73.3427 737.385 78.9484C741.406 82.2962 746.105 82.1073 750.147 80.7547C754.825 79.1901 759.098 76.1346 763.19 73.2295C767.118 70.4398 769.954 66.7349 768.868 61.361C768.707 60.5699 768.845 59.7195 768.845 58.3769ZM311.812 57.4759C311.812 59.8986 311.974 61.6555 311.775 63.3706C311.442 66.2592 312.579 68.3731 314.48 70.4805C318.915 75.3995 324.513 78.6682 330.542 80.847C333.996 82.0952 338.56 82.5391 341.707 80.0076C349.177 73.9997 357.843 70.9925 366.933 68.8181C369.681 68.1611 371.2 66.825 371.721 63.9606C373.064 56.5991 371.792 49.498 369.299 42.6859C366.93 36.2067 363.789 30.0066 361.021 23.6691C360.51 22.4989 360.149 21.264 359.742 20.0521C356.973 11.8215 352.271 5.61256 342.996 4.1007C341.825 3.91062 340.704 3.42828 339.55 3.11624C331.063 0.829783 320.818 6.55527 319.263 14.3771C318.48 18.3128 317.522 22.2155 316.807 26.1632C315.917 31.0789 315.661 36.1562 314.284 40.9235C312.642 46.6106 311.247 52.2141 311.812 57.4759ZM538.237 63.9628C539.338 53.5831 538.881 48.2422 536.167 41.2971C533.28 33.9104 530.209 26.5917 527.109 19.2895C526.292 17.369 525.162 15.5572 524.012 13.8025C522.134 10.9359 519.425 9.09223 516.145 8.09349C513.593 7.31778 511.025 6.59262 508.464 5.84219C500.954 3.64143 489.342 8.37037 488.441 17.714C487.933 22.9835 487.023 28.264 487.088 33.5302C487.229 44.879 486.281 55.9267 481.935 66.6086C479.674 72.1659 481.802 77.2355 487.317 79.845C491.17 81.6689 495.395 83.3686 499.577 83.7334C510.757 84.7068 522 85.0475 533.224 85.3979C538.157 85.5518 539.38 83.9147 539.072 79.0044C538.758 73.9931 538.513 68.9774 538.237 63.9628ZM539.898 67.8336C540.312 71.9209 540.482 76.0489 541.199 80.0823C542.054 84.8695 542.933 85.5814 547.912 85.4188C558.778 85.0639 569.667 84.7991 580.483 83.8059C584.942 83.3961 589.443 81.648 593.551 79.7219C598.884 77.2212 600.594 72.1484 598.774 66.6217C596.457 59.5899 593.876 52.6745 593.77 45.0746C593.653 36.577 593.112 28.0783 592.559 19.5928C592.099 12.5433 587.934 8.33301 581.412 6.0894C576.44 4.37978 571.857 6.17071 567.095 7.24856C560.191 8.81206 556.041 13.107 553.476 19.3104C550.514 26.4774 547.462 33.6115 544.682 40.8488C541.355 49.5079 540.502 58.6208 539.898 67.8336ZM374.029 51.8702C374.361 51.056 374.619 50.3693 374.918 49.6991C378.069 42.6453 378.218 34.9388 379.832 27.5509C380.474 24.6107 381.437 21.7408 382.27 18.8435C384.939 9.56139 397.341 3.49091 407.656 6.09819C415.709 8.13304 418.794 12.9334 419.974 20.2191C420.969 26.3566 422.056 32.4864 423.397 38.5547C423.916 40.9027 425.159 43.1177 426.233 45.3152C427.629 48.173 429.189 50.9528 430.874 54.138C433.224 51.467 434.731 48.4718 435.224 45.0625C436.294 37.6658 438.189 30.523 441.801 23.9482C442.972 21.8166 444.593 19.8422 446.341 18.1304C449.445 15.0924 453.296 14.0761 457.56 15.1858C460.05 15.834 462.581 16.4746 464.924 17.4975C469.426 19.461 470.22 23.7746 470.989 27.942C471.97 33.2489 472.635 38.6162 473.751 43.8923C474.249 46.2436 475.45 48.4641 476.453 50.6902C478.018 54.1621 479.688 57.5891 481.976 61.2621C482.839 57.9132 484.208 54.6016 484.464 51.2077C485.063 43.2759 485.021 35.2991 485.457 27.352C485.658 23.7163 486.4 20.1125 486.846 16.4867C487.936 7.6485 499.037 2.55259 505.23 3.61287C510.09 4.44351 514.971 5.75209 519.518 7.62653C524.881 9.83937 527.395 14.899 529.43 19.9752C533.122 29.188 536.637 38.4712 540.279 47.8576C540.478 47.5533 540.778 47.2325 540.923 46.8534C544.216 38.2492 547.424 29.6121 550.811 21.0442C551.882 18.337 553.267 15.7187 554.786 13.2279C556.647 10.1745 559.34 7.88033 562.814 6.82336C568.235 5.17636 573.546 2.53721 579.459 3.80295C587.128 5.44445 593.311 9.62951 594.104 18.059C594.909 26.6082 594.903 35.2299 595.657 43.7846C596.119 49.019 597.323 54.1896 598.253 59.3789C598.365 60.0096 598.839 60.5765 599.123 61.1303C604.512 51.39 608.542 41.429 609.273 30.4032C609.392 28.5903 609.825 26.784 610.254 25.0084C611.269 20.8113 613.677 18.2392 617.983 16.5801C629.417 12.1775 635.761 16.5592 639.725 25.9039C642.266 31.8986 643.356 38.4888 645.297 44.7515C646.307 48.0093 647.75 51.1351 648.999 54.3204C649.295 54.2841 649.593 54.2467 649.888 54.2083C650.953 51.9603 651.69 49.4717 653.145 47.5093C656.8 42.5815 657.83 36.8714 658.835 31.0965C659.604 26.6807 660.383 22.2671 661.204 17.8601C662.302 11.9599 665.327 8.20886 671.596 6.53439C679.943 4.30507 687.064 5.72682 693.469 11.2732C697.919 15.1254 699.202 20.5597 700.437 25.8973C701.381 29.9824 701.572 34.2378 702.49 38.3305C703.521 42.9243 704.993 47.4203 706.272 51.9592C706.508 51.9416 706.743 51.9251 706.979 51.9087C707.629 49.3189 708.009 46.6238 708.989 44.1637C710.674 39.9369 712.842 35.9024 714.602 31.703C716.189 27.9157 717.445 23.9932 718.955 20.1729C719.962 17.625 721.045 15.0924 722.294 12.6554C724.709 7.93637 728.454 4.75115 733.69 3.38323C735.915 2.8009 738.079 1.97796 740.317 1.45276C751.762 -1.23473 761.455 5.09176 764.081 17.1789C765.147 22.0836 765.56 27.1235 766.391 32.081C766.947 35.3958 767.301 38.8283 768.467 41.9421C771.499 50.0408 770.63 58.3736 770.512 66.6701C770.498 67.6491 769.796 68.7269 769.161 69.5718C764.418 75.8829 757.884 80.0988 750.615 82.4292C746.072 83.8861 740.73 84.0927 736.254 80.3075C729.845 74.8886 721.83 72.8087 713.95 70.4926C711.619 69.807 709.47 68.5116 706.975 67.3777C707.201 67.036 706.832 67.3359 706.865 67.582C707.54 72.5439 704.291 75.5786 700.931 77.9969C696.491 81.1909 691.762 84.2597 686.706 86.2539C682.032 88.0975 676.774 88.5074 671.748 89.4105C670.838 89.5753 669.7 89.2842 668.852 88.8502C664.93 86.8406 661.08 84.6948 657.192 82.6193C653.509 80.6525 650.568 78.0079 649.079 73.201C647.262 77.0366 643.892 76.4081 641.233 77.4959C632.425 81.0931 623.317 80.446 614.243 80.1328C609.4 79.9658 604.458 79.3967 600.221 75.8093C596.048 82.3633 589.197 84.5827 582.301 85.2353C570.038 86.3956 557.672 86.545 545.344 86.8845C543.618 86.9329 541.855 85.6616 540.822 85.2694C538.201 85.8539 536 86.7944 533.816 86.756C522.686 86.5637 511.513 86.6066 500.446 85.5902C492.987 84.9057 485.424 83.1203 480.719 76.1697C469.469 82.1303 457.503 80.6009 445.642 79.4406C442.05 79.089 438.505 77.9178 435.044 76.7982C433.76 76.3829 432.778 75.0413 431.319 73.8437C429.15 80.7185 423.089 82.828 417.459 85.4716C417.043 85.6671 416.567 85.8166 416.245 86.1198C411.311 90.7554 405.49 89.7258 399.855 88.3118C390.181 85.8858 381.717 81.2305 375.259 73.48C374.51 72.5813 374.166 71.2254 373.97 70.0267C373.752 68.7005 373.92 67.3118 373.634 65.6801C371.995 70.0893 368.009 70.2168 364.482 71.1837C356.619 73.3372 349.038 76.0499 342.718 81.481C341.77 82.2951 340.238 82.5951 338.922 82.8082C329.053 84.4069 321.861 79.1341 314.911 73.3833C311.413 70.4904 309.928 66.9525 309.945 62.1576C309.976 53.849 310.653 45.8382 313.364 37.8724C314.805 33.6335 314.552 28.8419 315.234 24.325C315.711 21.1662 316.434 18.0414 317.116 14.9166C319.508 3.93589 332.087 -1.6929 341.525 1.77689C342.56 2.15705 343.608 2.56468 344.686 2.76135C353.049 4.28639 357.735 9.75367 360.546 17.2492C361.639 20.1619 362.621 23.1175 363.794 25.9973C364.82 28.5167 366.182 30.9064 367.149 33.4456C369.192 38.8041 371.082 44.2208 373.009 49.6222C373.191 50.1298 373.183 50.7033 373.31 51.2351C373.344 51.3703 373.557 51.4637 374.029 51.8702Z" fill="#247DA3"/>
<path d="M1043.3 58.9211C1039.86 62.2481 1036.54 65.463 1033.23 68.6625C1038.89 69.792 1044.68 70.3787 1050.79 68.1615C1047.99 64.7059 1045.44 61.5636 1043.3 58.9211ZM972.461 71.2588C969.093 67.4099 966.128 64.0225 962.966 60.4099C959.838 64.0412 956.894 67.4594 953.529 71.3653C960.215 73.0101 966.117 73.3222 972.461 71.2588ZM856.292 79.2861C865.398 87.8606 881.518 84.3106 884.828 73.3507C881.841 71.4785 879.12 70.5446 875.545 72.8179C872.436 74.7945 868.67 75.8097 865.111 77.0062C862.364 77.9303 859.488 78.4763 856.292 79.2861ZM1042.58 55.136C1046.68 59.8056 1050 64.0764 1053.84 67.8208C1057.75 71.6422 1062.66 71.9532 1066.85 68.4812C1073.32 63.1216 1079.56 57.3895 1078.08 47.6636C1077.9 46.5 1078.2 45.264 1078 44.1048C1077.09 38.5441 1076.49 32.8901 1074.99 27.4799C1073.73 22.8927 1070.15 20.8172 1065.08 20.9062C1049.15 21.1886 1033.22 21.3688 1017.28 21.2337C1013.45 21.2007 1011.16 22.5939 1009.51 25.633C1004.13 35.5622 1002.24 46.1001 1004.56 57.1775C1006.01 64.0841 1014.54 70.7182 1021.25 70.6479C1026.35 70.5951 1030.12 67.9285 1033.49 64.5367C1036.64 61.368 1039.71 58.1158 1042.58 55.136ZM833.373 51.8992C833.516 51.8959 833.658 51.8937 833.8 51.8904C833.711 50.9828 833.752 50.0401 833.513 49.1732C831.057 40.2845 828.624 31.3881 826.048 22.5334C824.112 15.8817 820.671 10.1749 815.047 5.84596C812.668 4.01547 810.218 3.44524 807.311 3.9924C801.463 5.09333 797.161 8.19614 794.643 13.5437C793.245 16.5168 792.016 19.579 790.895 22.6675C789.345 26.9372 788.313 31.4002 784.929 34.8216C783.868 35.894 783.218 37.4201 782.555 38.8199C780.208 43.7796 777.655 48.6711 775.748 53.7978C774.706 56.5995 774.284 59.8562 774.493 62.8447C775.046 70.7226 786.787 81.1166 794.921 82.2658C803.229 83.4382 809.701 80.1123 815.911 75.2076C818.567 73.1101 821.852 71.7598 824.942 70.2512C827.07 69.2118 829.466 68.6801 831.514 67.5242C832.424 67.0111 833.239 65.5399 833.291 64.4642C833.495 60.2847 833.373 56.0886 833.373 51.8992ZM963.635 56.9687C964.379 58.1323 964.786 58.9607 965.366 59.6441C968.32 63.1227 971.108 66.7793 974.362 69.959C977.711 73.2288 981.96 74.3385 986.627 73.0277C991.362 71.6983 994.605 68.3757 997.863 64.9444C1000.34 62.336 1000.1 59.3035 1000.14 56.2194C1000.17 52.9265 1000.43 49.6105 1000.14 46.3451C999.633 40.7185 999.233 35.0172 997.955 29.5378C996.121 21.6797 993.422 19.7372 985.334 19.7581C969.676 19.7965 954.017 20.2129 938.362 20.1371C934.386 20.1173 932.183 21.7995 930.502 24.8935C929.803 26.1779 929.085 27.4678 928.546 28.8215C925.268 37.0499 924.133 45.6122 924.999 54.3845C925.227 56.694 926.179 58.964 927.035 61.1625C927.256 61.7306 928.695 62.4623 929.023 62.2558C930.923 61.056 931.576 62.2701 932.492 63.5589C934.134 65.8662 935.718 68.2779 937.72 70.2545C942.205 74.6846 947.68 74.5506 952.111 70.059C954.234 67.9065 956.153 65.5553 958.151 63.2809C959.892 61.2977 961.614 59.2969 963.635 56.9687ZM882.447 56.4677C882.691 56.5951 882.935 56.7237 883.18 56.8511C883.125 57.2654 883.136 57.7016 883.002 58.0883C882.049 60.8384 881.122 63.5973 880.078 66.3123C879.246 68.4768 880.149 69.5151 882.153 70.1919C884.067 70.8391 885.953 71.6027 887.776 72.4685C893.618 75.2417 899.676 76.2624 906.009 74.6582C911.158 73.3529 915.641 70.5578 918.892 66.5694C920.395 64.7268 920.114 61.4438 920.622 58.8113C920.9 57.3752 921.213 55.9403 921.368 54.4889C921.502 53.2253 921.877 51.7366 921.387 50.6994C917.81 43.117 917.363 35.2732 918.009 27.0163C918.436 21.549 914.9 18.5011 909.337 17.9397C905.674 17.5694 901.978 17.287 898.3 17.3244C883.366 17.476 868.434 17.832 853.5 17.943C850.909 17.9616 849.107 18.8615 848.213 21.0359C846.795 24.4881 845.455 28.0139 844.551 31.6243C842.711 38.9627 841.914 46.5901 837.263 53.0254C836.328 54.3186 835.956 56.3358 836.048 57.9806C836.502 66.1925 840.934 72.2059 847.596 76.5689C849.257 77.6567 851.917 78.0269 853.92 77.66C859.055 76.7173 864.091 75.2153 869.146 73.8606C874.811 72.3421 878.821 69.4733 879.147 62.9007C879.264 60.544 880.443 58.096 882.447 56.4677ZM835.983 51.4784C839.403 47.3296 840.197 42.9171 841.223 38.5947C842.3 34.058 843.319 29.506 844.523 25.0034C844.942 23.4366 845.746 21.9456 846.538 20.5096C847.971 17.9144 850.029 16.6552 853.247 16.6629C870.946 16.7003 888.645 16.5311 906.344 16.4487C907.45 16.4432 908.561 16.5025 909.657 16.6388C916.489 17.4914 919.837 21.1337 919.908 27.9535C919.935 30.4146 920.03 32.9813 919.41 35.3216C918.183 39.9714 920.758 43.3115 922.455 47.0076C923.605 41.6392 924.65 36.4027 925.881 31.2101C926.3 29.4499 927.082 27.7491 927.883 26.112C930.201 21.3743 933.217 18.5242 939.39 18.7461C950.981 19.1636 962.611 18.4253 974.227 18.3308C979.291 18.2902 984.356 18.6692 989.423 18.8307C993.312 18.9549 996.312 20.7799 997.73 24.2299C999.208 27.8271 1000.05 31.6946 1001.03 35.4776C1001.46 37.1136 1001.56 38.8331 1002.39 40.5163C1003.11 37.8629 1003.54 35.0831 1004.63 32.5879C1006.19 29.0203 1007.98 25.4956 1010.19 22.2994C1011.04 21.0721 1013.28 20.2074 1014.9 20.1833C1032.14 19.9251 1049.38 19.8767 1066.62 19.7515C1071.34 19.7174 1074.76 22.017 1076.29 26.1812C1077.82 30.3421 1078.9 34.7777 1079.38 39.1792C1079.94 44.3432 1079.65 49.5995 1079.68 54.8163C1079.68 55.4261 1079.58 56.1974 1079.21 56.6259C1075.52 60.9142 1072.08 65.4795 1067.93 69.2931C1064.46 72.4893 1059.99 72.652 1055.46 70.7698C1054.01 70.1633 1052.07 70.0062 1050.54 70.3765C1044 71.9554 1037.54 71.217 1031.04 70.2633C1029.9 70.0963 1028.63 70.1754 1027.53 70.5061C1016.62 73.7913 1006.19 68.2658 1002.83 57.361C1002.78 57.1972 1002.65 57.0577 1002.38 56.6061C1002.15 57.3445 1001.89 57.8543 1001.85 58.3828C1000.96 68.602 988.41 77.0425 978.6 73.8353C976.047 73.0003 973.772 72.775 971.127 73.5244C965.224 75.1966 959.248 74.3286 953.298 73.4233C952.086 73.2387 950.682 73.22 949.572 73.6496C944.015 75.8009 939.459 74.2209 935.525 70.1941C934.312 68.9536 933.264 67.5385 932.259 66.12C931.302 64.7664 930.653 63.4941 928.399 63.9775C927.567 64.1566 926.044 62.5041 925.294 61.3845C924.374 60.0111 923.936 58.3212 923.289 56.7687C923.037 56.7918 922.787 56.816 922.536 56.8402C922.328 59.1376 922.267 61.4625 921.853 63.7226C921.609 65.0564 921.119 66.5969 920.203 67.5209C911.871 75.9141 901.916 78.4445 890.569 74.9769C888.16 74.2407 886.683 74.5604 885.173 76.6151C883.72 78.5906 881.858 80.2958 880.036 81.9725C874.984 86.6278 869.177 87.4848 862.874 84.9226C860.152 83.8161 857.56 82.4021 854.882 81.1847C852.799 80.2376 850.721 79.2487 848.56 78.5104C844.695 77.1908 842.015 74.5033 839.716 71.3445C838.385 69.5162 837.177 67.6011 835.768 65.5135C833.425 69.7206 829.281 70.5193 825.413 71.9696C822.555 73.0431 819.639 74.4055 817.293 76.3008C810.364 81.9022 803.049 85.6565 793.727 83.7711C782.481 81.4967 771.945 69.0767 772.613 58.5728C772.705 57.1324 772.933 55.6074 773.514 54.3054C776.278 48.1217 778.445 41.4986 782.24 35.9951C786.411 29.9532 788.545 23.2916 791.118 16.6904C794.216 8.73561 799.19 2.83324 808.359 2.15533C810.56 1.99272 813.223 2.59372 815.046 3.79024C820.127 7.12818 824.165 11.611 826.067 17.4848C828.235 24.1771 830.018 30.9926 831.977 37.7519C833.243 42.1194 834.523 46.4824 835.983 51.4784Z" fill="#247DA3"/>
<path d="M29.7316 68.2205C36.0179 70.3015 41.8305 69.9631 47.6022 68.5655C44.2306 65.0254 41.0183 61.6523 37.8326 58.3089C35.136 61.6084 32.6153 64.6925 29.7316 68.2205ZM127.122 71.4145C123.626 67.391 120.585 63.8926 117.572 60.425C114.316 64.2057 111.414 67.5734 108.25 71.2475C114.459 73.4615 120.365 72.9593 127.122 71.4145ZM224.381 79.4001C223.305 79.0848 222.632 78.9112 221.973 78.6903C216.245 76.7642 210.224 75.4051 204.891 72.7044C201.097 70.7828 198.595 71.7255 195.631 73.4648C200.604 84.7938 214.248 87.7922 224.381 79.4001ZM37.6788 55.2852C38.2929 55.8411 38.9801 56.4256 39.6252 57.053C42.9824 60.3217 46.1914 63.7553 49.7102 66.8394C54.8988 71.3849 61.3765 71.9881 66.8162 68.5271C72.9951 64.5969 76.9223 59.2428 76.8315 51.6C76.8028 49.129 76.9853 46.6349 76.7076 44.1913C75.8611 36.7694 74.3816 29.4826 69.4022 23.544C68.4428 22.3991 66.502 21.4871 64.9982 21.4619C48.9578 21.1927 32.9129 21.118 16.8703 21.0037C9.3945 20.9509 6.60602 22.988 4.52572 30.0913C2.11457 38.323 2.60034 46.7634 2.81944 55.1764C2.83493 55.7741 3.07837 56.474 3.45238 56.9366C6.21873 60.3514 8.73279 64.0464 11.9196 67.0284C17.5962 72.3408 22.6166 72.1946 28.1061 66.6636C31.4965 63.2488 34.3381 59.2977 37.6788 55.2852ZM247.344 60.2844H247.396C247.396 61.0161 247.406 61.749 247.395 62.4807C247.324 66.9042 247.709 67.4613 251.962 69.0534C252.478 69.2467 252.978 69.5214 253.513 69.6225C258.452 70.5619 262.431 73.0582 266.262 76.2973C276.976 85.353 289.206 84.6279 299.132 74.6799C300.618 73.1912 301.973 71.5519 303.234 69.8686C306.638 65.333 307.441 60.1745 305.376 55.0478C302.784 48.6104 300.249 41.9543 296.369 36.2826C292.753 30.9944 290.802 25.2745 288.578 19.5149C287.625 17.0472 286.574 14.5695 285.187 12.3281C284.004 10.4163 282.579 8.3573 280.732 7.19704C273.713 2.79223 268.747 2.2198 263.161 7.931C259.937 11.2261 257.198 14.7486 255.865 19.093C252.89 28.7937 249.876 38.501 247.492 48.3522C246.58 52.123 247.344 56.2949 247.344 60.2844ZM152.658 62.9928C153.433 61.326 154.324 60.013 154.667 58.5715C157.34 47.3589 155.559 36.6232 150.841 26.2655C149.006 22.2343 146.359 19.3237 141.3 20.2137C140.858 20.2906 140.382 20.1522 139.922 20.1489C124.356 20.0412 108.79 19.9621 93.2238 19.8193C88.0574 19.772 85.0066 22.4287 83.3402 27.0302C83.0591 27.8037 82.7427 28.5695 82.5346 29.3628C79.7882 39.881 80.4178 50.5969 80.6911 61.2886C80.7066 61.8808 80.9622 62.6313 81.3783 63.0246C84.5485 66.0252 87.4532 69.4753 91.0849 71.7837C96.1185 74.9832 101.763 74.1998 106.084 70.0543C109.494 66.7834 112.339 62.9323 115.419 59.323C115.975 58.6714 116.449 57.9485 117.08 57.0981C118 58.1485 118.663 58.9011 119.32 59.6581C122.269 63.0477 125.122 66.5285 128.187 69.8126C132.731 74.6799 138.181 74.8195 142.954 70.1653C144.711 68.4523 146.233 66.4461 147.578 64.3914C148.833 62.4742 149.824 60.5997 152.658 62.9928ZM197.418 56.7772C197.628 56.6586 197.838 56.5399 198.05 56.4202C198.586 57.031 199.351 57.5584 199.618 58.2693C200.577 60.8228 201.602 63.3894 202.159 66.0428C202.755 68.8688 203.901 71.0201 206.768 71.954C212.087 73.6889 217.378 75.5227 222.752 77.0719C227.662 78.4882 232.668 78.6035 236.252 74.3327C239.105 70.9344 241.56 67.1229 243.665 63.2147C245.429 59.9416 245.479 56.0894 243.293 52.9756C239.19 47.1326 238.187 40.3699 236.498 33.7391C235.336 29.1793 233.573 24.7569 231.872 20.3532C231.198 18.6085 229.584 18.002 227.59 17.9965C221.879 17.9789 216.169 17.6635 210.458 17.6493C198.027 17.6152 185.586 17.4295 173.165 17.824C164.937 18.0844 161.982 21.8926 162.431 30.088C162.501 31.3647 162.563 32.6579 162.817 33.9072C163.634 37.9307 162.92 41.6345 160.987 45.2527C159.168 48.6554 158.693 52.2977 159.478 56.1576C160.002 58.7396 160.042 61.415 160.384 64.0365C160.485 64.8144 160.66 65.7681 161.169 66.2769C165.174 70.2883 169.645 73.6186 175.352 74.8535C182.247 76.3456 188.543 74.5602 194.808 71.6958C201.799 68.4996 201.958 68.593 199.166 61.3919C198.771 60.3745 198.184 59.4307 197.766 58.4198C197.557 57.91 197.529 57.3277 197.418 56.7772ZM244.284 66.4021C243.051 68.1711 241.6 70.3905 240.006 72.5056C237.625 75.6655 234.6 77.7927 230.658 78.9178C227.965 79.688 225.568 81.4382 222.976 82.6117C220.555 83.7082 218.093 84.7531 215.57 85.587C210.662 87.2077 206.035 86.4616 202.08 83.127C199.565 81.0075 197.211 78.6519 195.062 76.1654C193.7 74.5899 192.478 74.2591 190.525 74.8689C179.246 78.3948 169.209 76.2709 160.787 67.892C159.696 66.8064 159.229 65.0034 158.743 63.4498C158.397 62.3423 158.553 61.0887 158.396 59.9119C158.253 58.8527 157.99 57.8078 157.624 55.984C156.666 58.2858 156.081 59.9504 155.294 61.515C154.443 63.2059 153.419 64.6321 150.995 64.0102C150.425 63.864 149.314 64.821 148.819 65.5253C146.256 69.1654 143.613 72.7616 139.076 74.0383C137.287 74.5415 135.025 74.8953 133.426 74.2394C130.007 72.8352 126.733 73.3769 123.41 73.9416C118.038 74.8536 112.791 74.5338 107.542 73.1066C106.398 72.7956 104.929 72.9022 103.822 73.3439C97.5482 75.8413 91.8318 74.7964 86.7262 70.6773C84.3184 68.7347 82.009 66.5032 80.2463 63.9926C79.038 62.2731 78.8499 59.8482 78.2977 58.0397C76.3679 60.5843 74.5686 63.5333 72.2106 65.9439C66.9092 71.364 60.6959 73.4472 53.1095 70.6487C51.1277 69.9181 48.5672 70.363 46.3463 70.719C40.527 71.6507 34.8062 71.5958 29.0788 70.107C28.053 69.8411 26.6864 70.0191 25.727 70.4916C20.5473 73.045 15.6354 72.3539 11.633 68.593C7.91948 65.1034 4.87318 60.9096 1.58675 56.9816C1.20831 56.5289 1.00692 55.7983 0.996965 55.1918C0.858647 46.5063 0.420458 37.7956 2.97435 29.3079C5.05576 22.3903 8.57456 19.7511 15.8324 19.7929C32.3331 19.8885 48.8338 20.0445 65.3346 20.0687C67.6926 20.072 69.3834 20.8927 70.8507 22.587C74.5841 26.9017 76.1233 32.1525 77.4291 37.5143C77.7057 38.6482 78.0377 39.7689 78.509 41.5016C79.391 36.8902 80.035 32.8952 80.9611 28.964C81.3949 27.1247 82.206 25.3184 83.141 23.6604C84.8296 20.6664 87.4764 18.904 91.0052 18.882C103.902 18.8007 116.799 18.7634 129.695 18.759C134.304 18.7579 138.924 19.1205 143.517 18.8985C146.849 18.7381 148.898 20.2258 150.62 22.6913C154.397 28.0982 156.006 34.2555 156.94 40.6446C157.238 42.6871 157.484 44.7363 158.023 46.77C160.341 42.9761 162.136 39.1822 161.214 34.6356C160.818 32.6755 160.672 30.6352 160.682 28.6322C160.723 20.8015 164.387 16.8637 172.251 16.5978C180.907 16.3033 189.576 16.2297 198.238 16.2605C207.731 16.2956 217.227 16.7637 226.717 16.6307C230.944 16.5725 233.531 18.3953 234.767 21.931C236.481 26.8335 237.686 31.9119 239.073 36.9254C239.973 40.1809 240.675 43.498 241.726 46.703C242.273 48.3687 243.384 49.8519 244.599 52.0736C247.384 41.8345 249.858 32.3942 252.539 23.0122C254.29 16.8845 256.932 11.2349 261.796 6.74986C268.448 0.614552 277.289 0.420077 283.45 7.18276C286.273 10.2823 288.09 14.3619 290.002 18.1756C291.303 20.7719 291.853 23.7296 292.973 26.4292C293.798 28.4168 294.981 30.2605 296.039 32.1492C297.736 35.1784 299.587 38.1296 301.141 41.2291C303.026 44.989 304.753 48.8345 306.402 52.7053C309.109 59.0549 308.809 65.2078 304.649 70.9003C300.569 76.4852 295.633 81.0998 288.844 83.2445C280.24 85.9617 272.529 83.672 265.882 78.1739C261.744 74.7514 257.391 72.3221 252.205 70.8783C249.449 70.1103 247.065 68.026 244.284 66.4021Z" fill="#247DA3"/>
<path d="M649.671 119.884C654.006 120.362 658.727 120.5 663.333 122.843C667.07 124.745 671.634 125.037 675.826 126.067C676.715 126.285 677.599 126.555 678.456 126.883C682.557 128.455 682.872 129.04 682.404 133.387C682.188 135.386 682.213 137.413 681.954 139.406C679.883 155.271 679.889 171.27 678.75 187.195C678.498 190.729 677.804 194.276 676.903 197.71C675.348 203.651 670.839 206.491 664.716 205.196C657.972 203.768 652.202 200.696 649.656 193.743C647.018 186.535 643.524 179.442 642.266 171.989C641.164 165.458 638.49 160.165 635.161 154.785C630.719 147.604 630.317 139.352 629.583 131.253C629.518 130.535 630.455 129.558 631.158 128.973C633.675 126.872 636.366 124.972 638.851 122.836C641.267 120.759 644.114 119.828 649.671 119.884Z" fill="white"/>
<path d="M447.631 133.014C447.098 143.216 444.638 152.696 438.273 160.976C436.965 162.678 436.367 165.111 436.002 167.299C434.227 177.946 430.592 187.974 425.59 197.463C422.932 202.505 413.144 206.282 407.645 204.995C402.563 203.805 400.455 199.809 399.976 195.299C398.887 185.047 398.349 174.738 397.498 164.459C397.094 159.571 396.38 154.708 396 149.819C395.497 143.352 395.09 136.874 394.898 130.393C394.87 129.467 396.092 127.987 397.053 127.646C400.581 126.395 404.267 125.594 407.844 124.471C410.885 123.517 413.805 122.167 416.871 121.319C423.228 119.561 429.674 118.697 436.098 121.012C437.164 121.396 438.026 122.37 438.952 123.109C441.015 124.76 442.9 126.708 445.159 128.024C447.307 129.274 448.38 130.624 447.631 133.014Z" fill="white"/>
<path d="M744.102 132.862C743.759 130.371 744.769 129.105 747.188 128.14C752.734 125.928 758.124 123.33 763.543 120.816C768.914 118.325 774.386 117.128 780.076 119.573C786.894 122.503 793.681 125.514 800.43 128.597C804.159 130.3 804.369 131.009 803.454 135.04C802.968 137.179 802.36 139.334 802.244 141.503C802.052 145.099 800.581 147.786 798.105 150.437C796.562 152.088 796.201 154.875 795.455 157.199C793.946 161.901 792.604 166.654 791.068 171.345C788.95 177.822 784.831 182.883 779.521 187.086C776.814 189.228 773.962 190.242 770.55 188.868C769.448 188.423 768.266 188.087 767.088 187.932C760.669 187.087 757.863 182.864 756.706 177.094C755.411 170.64 754.388 164.12 752.797 157.74C751.951 154.338 750.402 151.04 748.735 147.925C746.184 143.158 744.566 138.189 744.102 132.862Z" fill="white"/>
<path d="M334.07 133.138C332.536 137.661 331.732 142.555 329.344 146.508C325.502 152.861 324.296 159.752 322.957 166.755C322.065 171.416 320.904 176.035 319.65 180.614C318.693 184.112 316.494 186.56 312.705 187.294C311.715 187.486 310.707 187.736 309.798 188.153C304.024 190.798 299.615 188.966 295.154 184.816C288.592 178.716 286.025 170.814 283.543 162.752C282.818 160.394 282.245 157.989 281.643 155.595C280.965 152.899 279.775 150.629 277.804 148.494C276.389 146.96 275.879 144.466 275.338 142.308C274.584 139.299 273.993 136.221 273.722 133.139C273.626 132.058 274.372 130.311 275.257 129.842C278.405 128.172 281.798 126.963 285.062 125.501C288.318 124.043 291.628 122.666 294.737 120.938C299.512 118.282 304.506 117.294 309.594 119.295C317.116 122.254 324.514 125.543 331.837 128.959C332.879 129.445 333.208 131.442 334.07 133.138Z" fill="white"/>
<path d="M393.499 132.099C392.727 134.983 392.497 137.569 391.38 139.694C387.422 147.235 385.483 155.289 383.822 163.566C382.665 169.334 380.173 174.851 378.118 180.423C375.831 186.624 370.513 189.091 364.607 190.495C361.408 191.257 358.74 189.725 356.995 187.132C355.423 184.794 353.962 182.281 353.02 179.645C349.731 170.448 346.697 161.161 343.542 151.918C343.188 150.884 342.61 149.926 342.251 148.893C340.361 143.478 338.398 138.082 336.753 132.594C336.49 131.718 337.42 129.867 338.304 129.388C341.196 127.826 344.342 126.73 347.354 125.377C350.855 123.801 354.419 122.323 357.774 120.478C363.17 117.512 368.508 117.022 374.12 119.784C379.802 122.583 385.629 125.104 391.206 128.091C392.411 128.734 392.821 130.843 393.499 132.099Z" fill="white"/>
<path d="M710.777 117.411C713.597 118.37 716.161 119.076 718.588 120.103C723.725 122.279 728.724 124.787 733.903 126.856C741.334 129.823 741.665 130.029 739.421 137.508C738.221 141.506 736.325 145.294 734.988 149.257C733.208 154.532 731.869 159.958 729.975 165.187C727.734 171.373 725.315 177.514 722.589 183.501C719.16 191.031 715.085 192.059 707.505 188.786C702.405 186.583 699.876 182.659 698.11 177.941C695.22 170.23 692.551 162.478 691.661 154.185C691.359 151.387 689.884 148.657 688.662 146.028C686.376 141.111 683.875 136.264 684.603 130.622C684.726 129.669 685.545 128.431 686.391 128.002C691.543 125.382 696.752 122.856 702.037 120.51C704.853 119.259 707.86 118.43 710.777 117.411Z" fill="white"/>
<path d="M476.841 122.077C481.714 122.9 486.679 123.378 491.436 124.634C497.23 126.166 498.579 128.584 498.048 134.477C497.327 142.502 497.484 151.271 492.01 157.462C485.061 165.321 484.685 174.891 482.301 183.997C481.391 187.477 480.165 190.522 477.404 192.941C476.106 194.077 475.087 195.535 473.996 196.892C471.105 200.483 466.353 200.817 462.81 197.839C458.825 194.49 457.696 189.781 456.991 185.14C455.581 175.853 454.666 166.488 453.624 157.147C452.695 148.817 451.96 140.466 450.952 132.146C450.631 129.503 451.586 128.061 453.881 126.988C461.139 123.589 468.861 122.731 476.841 122.077Z" fill="white"/>
<path d="M601.053 122.631C608.289 122.679 615.396 123.504 622.135 126.3C626.527 128.121 626.643 128.487 626.318 133.211C626.041 137.224 626.269 141.309 625.611 145.254C623.016 160.804 623.84 176.851 618.692 192.029C616.798 197.614 611.989 200.807 607.218 199.455C606.516 199.255 605.597 199.1 605.219 198.597C601.758 193.999 596.333 190.789 595.284 184.472C594.447 179.436 593.537 174.4 592.316 169.447C591.767 167.22 590.808 164.819 589.304 163.145C583.299 156.468 580.847 148.517 579.99 139.872C579.775 137.688 579.459 135.513 579.272 133.326C578.913 129.119 580.122 127.09 584.017 125.354C589.446 122.933 595.221 122.58 601.053 122.631Z" fill="white"/>
<path d="M576.188 135.338C576.58 138.134 576.989 140.928 577.363 143.726C577.545 145.083 578.009 146.516 577.754 147.797C576.333 154.95 578.254 161.995 578.204 169.079C578.158 175.713 577.674 182.383 576.781 188.959C576.182 193.37 572.191 195.228 568.004 193.651C564.465 192.318 561.545 190.286 558.806 187.455C553.236 181.694 550.321 174.818 547.846 167.47C545.927 161.775 543.265 156.333 541.052 150.733C538.573 144.457 538.771 137.793 538.726 131.238C538.705 128.352 541.667 127.534 543.941 127.154C548.64 126.368 553.425 125.58 558.161 125.65C563.274 125.726 568.377 126.751 573.477 127.422C575.985 127.753 577.224 129.054 576.65 131.745C576.405 132.894 576.492 134.114 576.429 135.301C576.349 135.313 576.267 135.324 576.188 135.338Z" fill="white"/>
<path d="M498.789 174.368C499.312 168.072 499.852 163.251 500.065 158.415C500.2 155.345 499.83 152.253 499.722 149.169C499.677 147.899 499.651 146.622 499.738 145.356C500.075 140.458 500.581 135.568 500.76 130.665C500.821 129.015 501.195 128.076 502.805 127.659C513.228 124.956 523.686 124.477 534.194 127.147C536.273 127.677 537.431 128.653 537.15 131.192C536.862 133.798 537.011 136.526 537.444 139.122C538.459 145.206 536.564 150.654 534.327 156.118C531.594 162.788 529.32 169.661 526.269 176.178C522.823 183.541 518.072 189.986 510.101 193.269C505.341 195.23 501.22 193.207 500.401 188.167C499.582 183.135 499.203 178.032 498.789 174.368Z" fill="white"/>
<path d="M539.961 67.8747C540.565 58.6618 541.418 49.549 544.745 40.8899C547.525 33.6525 550.578 26.5185 553.539 19.3503C556.104 13.1469 560.254 8.85197 567.157 7.28847C571.92 6.21062 576.503 4.42078 581.476 6.13041C587.997 8.37402 592.163 12.5844 592.622 19.6327C593.174 28.1193 593.716 36.6169 593.834 45.1156C593.939 52.7155 596.52 59.6309 598.837 66.6617C600.658 72.1883 598.948 77.2622 593.614 79.7629C589.506 81.689 585.005 83.4371 580.547 83.8469C569.73 84.8391 558.841 85.105 547.975 85.4599C542.996 85.6225 542.116 84.9105 541.263 80.1222C540.545 76.0899 540.375 71.9609 539.961 67.8747Z" fill="white"/>
<path d="M538.278 64.0773C538.554 69.0908 538.8 74.1065 539.114 79.1178C539.421 84.0292 538.2 85.6663 533.267 85.5124C522.041 85.1608 510.798 84.8202 499.618 83.8479C495.437 83.4831 491.211 81.7833 487.358 79.9595C481.843 77.35 479.716 72.2804 481.976 66.7231C486.322 56.0412 487.27 44.9935 487.129 33.6436C487.065 28.3774 487.974 23.098 488.483 17.8285C489.383 8.48385 500.996 3.75602 508.506 5.95678C511.066 6.70721 513.634 7.43127 516.187 8.20807C519.467 9.20682 522.175 11.0494 524.054 13.916C525.204 15.6717 526.334 17.4824 527.15 19.4041C530.25 26.7063 533.321 34.0238 536.208 41.4117C538.922 48.3567 539.379 53.6965 538.278 64.0773Z" fill="white"/>
<path d="M311.857 57.5452C311.293 52.2845 312.687 46.681 314.329 40.994C315.706 36.2266 315.962 31.1483 316.853 26.2326C317.568 22.2859 318.525 18.3833 319.307 14.4476C320.863 6.62466 331.108 0.899183 339.595 3.18674C340.749 3.49768 341.87 3.98002 343.041 4.1701C352.316 5.68305 357.018 11.8909 359.787 20.1214C360.195 21.3333 360.556 22.5694 361.066 23.7385C363.835 30.0759 366.975 36.2761 369.345 42.7553C371.837 49.5685 373.109 56.6685 371.767 64.0299C371.245 66.8943 369.726 68.2315 366.978 68.8885C357.888 71.0618 349.222 74.069 341.752 80.0769C338.604 82.6084 334.041 82.1645 330.588 80.9163C324.559 78.7386 318.96 75.4688 314.525 70.5498C312.624 68.4424 311.488 66.3296 311.821 63.4399C312.019 61.7248 311.857 59.969 311.857 57.5452Z" fill="white"/>
<path d="M768.929 58.4256C768.929 59.7683 768.792 60.6187 768.952 61.4098C770.039 66.7837 767.203 70.4886 763.275 73.2794C759.183 76.1833 754.909 79.2389 750.232 80.8035C746.19 82.156 741.49 82.3461 737.469 78.9972C730.736 73.3926 722.441 71.0358 714.125 68.9097C710.288 67.9275 709.319 67.1507 708.903 63.2809C707.729 52.3497 710.392 42.3534 715.993 32.8889C718.098 29.3335 719.069 25.1209 720.595 21.2237C721.394 19.1812 722.219 17.1463 723.127 15.151C725.588 9.74858 729.551 6.0931 735.518 4.80648C736.415 4.61311 737.305 4.34941 738.158 4.01869C748.284 0.0995209 760.467 4.72518 762.633 18.5428C763.339 23.0509 763.822 27.592 764.51 32.1023C764.935 34.8886 765.216 37.7629 766.15 40.3922C768.297 46.4286 769.536 52.5343 768.929 58.4256Z" fill="white"/>
<path d="M375.564 61.5647C374.859 55.9732 376.686 50.0785 378.515 44.0729C379.992 39.2198 380.36 34.0426 381.4 29.0456C382.051 25.9219 382.805 22.7828 383.912 19.7965C387.496 10.1244 396.898 5.66681 407.041 7.91811C413.399 9.33107 416.728 12.6844 417.805 18.9768C419.131 26.7185 420.852 34.3931 422.48 42.0809C422.699 43.1148 423.227 44.1619 423.862 45.0189C429.807 53.0319 430.992 62.0866 429.851 71.6499C429.372 75.6592 427.265 78.6136 423.696 80.5518C419.42 82.8745 415.169 85.2423 410.863 87.5079C410.182 87.8649 409.242 87.9781 408.466 87.8726C404.728 87.365 400.79 87.3211 397.323 86.0432C390.332 83.4656 383.63 80.1958 378.362 74.611C376.337 72.4641 375.176 70.2633 375.53 67.2726C375.722 65.6475 375.564 63.9819 375.564 61.5647Z" fill="white"/>
<path d="M705.009 61.4235C705.009 62.9463 704.866 63.8 705.031 64.59C706.426 71.2923 702.453 75.3026 697.639 78.6603C690.307 83.776 682.339 87.4941 673.177 87.7721C671.574 87.8204 669.851 87.1678 668.346 86.4833C665.588 85.2297 663.051 83.4706 660.249 82.3532C653.528 79.6734 650.443 74.8104 650.31 67.7225C650.155 59.4414 652.072 51.9359 656.694 44.8612C658.751 41.7134 659.366 37.536 660.215 33.7322C661.308 28.8264 661.969 23.8249 662.834 18.8686C663.812 13.2673 666.467 9.5953 672.573 8.11531C679.4 6.46172 685.223 7.41981 690.845 11.4543C694.98 14.4198 696.762 18.6994 697.85 23.2382C699.104 28.4682 699.709 33.8487 700.712 39.1423C701.102 41.1904 701.646 43.2428 702.406 45.1832C704.551 50.6515 705.484 56.2737 705.009 61.4235Z" fill="white"/>
<path d="M618.964 78.8089C616.447 78.4694 611.413 77.9782 606.458 77.0674C602.478 76.3356 602.193 74.9699 601.587 71.0387C600.853 66.2779 600.476 61.4259 602.915 57.4408C608.399 48.4773 610.264 38.625 611.343 28.5398C612.073 21.709 615.937 18.5292 622.295 17.1174C628.445 15.7516 633.007 17.4766 636.686 23.4757C640.523 29.7363 642.157 36.7715 643.698 43.8506C644.346 46.8358 645.242 49.887 646.692 52.5514C648.392 55.6784 649.203 58.7922 648.803 62.2565C648.447 65.3428 648.127 68.4391 647.593 71.4968C647.155 74.0041 645.787 75.6511 642.872 75.4292C642.072 75.3677 641.156 75.4534 640.443 75.7885C634.413 78.6276 627.942 78.5133 618.964 78.8089Z" fill="white"/>
<path d="M461.539 78.9093C452.839 78.5566 446.552 78.717 440.674 75.9932C439.719 75.5504 438.517 75.4691 437.437 75.4944C435.065 75.5482 433.724 74.2693 433.392 72.1949C432.711 67.9604 432.189 63.694 431.835 59.4211C431.728 58.1311 432.065 56.5688 432.761 55.4909C436.135 50.2598 436.92 44.2674 438.441 38.4419C439.701 33.6185 441.571 28.8961 443.69 24.3671C445.333 20.8545 447.996 17.4682 452.13 17.0891C460.471 16.3255 468.639 18.5076 469.621 29.3125C470.155 35.1984 471.604 41.0107 472.801 46.823C473.103 48.2898 473.887 49.7127 474.68 51.018C478.233 56.8621 480.869 62.8865 479.112 69.948C479.026 70.2919 479.082 70.6743 479.097 71.0368C479.269 74.9187 478.517 76.3031 474.677 77.0392C469.549 78.0226 464.328 78.5269 461.539 78.9093Z" fill="white"/>
<path d="M882.539 56.3722C880.535 58.0005 879.355 60.4485 879.239 62.8053C878.914 69.379 874.904 72.2478 869.237 73.7651C864.183 75.1198 859.147 76.6218 854.011 77.5645C852.008 77.9326 849.348 77.5612 847.687 76.4735C841.026 72.1104 836.594 66.0971 836.14 57.8852C836.048 56.2415 836.419 54.2231 837.355 52.931C842.005 46.4947 842.803 38.8673 844.642 31.5289C845.546 27.9195 846.886 24.3937 848.306 20.9404C849.199 18.766 851 17.8673 853.592 17.8475C868.526 17.7365 883.457 17.3805 898.391 17.2289C902.069 17.1916 905.765 17.4739 909.429 17.8442C914.992 18.4067 918.528 21.4535 918.102 26.9219C917.456 35.1777 917.902 43.0227 921.478 50.6039C921.968 51.6411 921.593 53.131 921.459 54.3945C921.304 55.8448 920.991 57.2809 920.714 58.7158C920.206 61.3495 920.487 64.6314 918.985 66.4739C915.733 70.4634 911.249 73.2586 906.101 74.5628C899.768 76.1669 893.709 75.1462 887.868 72.373C886.044 71.5083 884.159 70.7436 882.245 70.0975C880.241 69.4196 879.338 68.3824 880.17 66.2168C881.213 63.5019 882.142 60.743 883.093 57.9939C883.227 57.6072 883.216 57.1699 883.271 56.7568C883.027 56.6282 882.784 56.5008 882.539 56.3722Z" fill="white"/>
<path d="M963.699 56.9069C961.677 59.2351 959.956 61.2359 958.215 63.2191C956.217 65.4924 954.298 67.8448 952.174 69.9972C947.744 74.4877 942.269 74.6228 937.784 70.1928C935.782 68.215 934.198 65.8044 932.555 63.4971C931.639 62.2083 930.987 60.9942 929.086 62.194C928.759 62.4006 927.319 61.6677 927.099 61.0997C926.243 58.9022 925.291 56.6322 925.063 54.3216C924.197 45.5504 925.332 36.988 928.61 28.7596C929.148 27.4049 929.867 26.1161 930.566 24.8317C932.247 21.7377 934.45 20.0555 938.426 20.0753C954.082 20.15 969.74 19.7347 985.397 19.6962C993.486 19.6753 996.185 21.6179 998.018 29.476C999.296 34.9554 999.697 40.6556 1000.2 46.2833C1000.5 49.5487 1000.24 52.8647 1000.2 56.1565C1000.17 59.2417 1000.4 62.2742 997.927 64.8826C994.669 68.3139 991.427 71.6365 986.691 72.9659C982.024 74.2767 977.774 73.167 974.426 69.8972C971.172 66.7175 968.384 63.0609 965.43 59.5823C964.85 58.8978 964.443 58.0705 963.699 56.9069Z" fill="white"/>
<path d="M833.437 51.8818C833.437 56.0713 833.558 60.2674 833.355 64.448C833.303 65.5226 832.488 66.9938 831.578 67.5069C829.53 68.6628 827.134 69.1945 825.005 70.2339C821.916 71.7425 818.631 73.0928 815.975 75.1903C809.764 80.095 803.293 83.422 794.985 82.2486C786.85 81.0993 775.11 70.7053 774.557 62.8274C774.348 59.8389 774.768 56.5822 775.812 53.7805C777.718 48.6538 780.272 43.7622 782.619 38.8026C783.282 37.4028 783.932 35.8778 784.993 34.8054C788.375 31.3828 789.409 26.9198 790.959 22.6501C792.08 19.5616 793.307 16.4994 794.707 13.5263C797.223 8.17877 801.527 5.07595 807.375 3.97503C810.282 3.42786 812.732 3.9981 815.111 5.82858C820.735 10.1576 824.175 15.8644 826.112 22.5161C828.688 31.3708 831.121 40.2672 833.577 49.1559C833.816 50.0228 833.775 50.9655 833.864 51.8731C833.722 51.8764 833.58 51.8786 833.437 51.8818Z" fill="white"/>
<path d="M1042.69 55.0255C1039.82 58.0053 1036.75 61.2575 1033.6 64.4262C1030.23 67.8191 1026.46 70.4846 1021.36 70.5385C1014.65 70.6088 1006.12 63.9736 1004.67 57.0669C1002.35 45.9895 1004.24 35.4527 1009.62 25.5224C1011.27 22.4833 1013.57 21.0912 1017.4 21.1242C1033.33 21.2593 1049.26 21.0791 1065.19 20.7968C1070.26 20.7067 1073.84 22.7822 1075.1 27.3705C1076.6 32.7795 1077.2 38.4336 1078.12 43.9942C1078.31 45.1545 1078.01 46.3895 1078.19 47.553C1079.67 57.279 1073.43 63.0111 1066.96 68.3707C1062.77 71.8427 1057.86 71.5317 1053.95 67.7103C1050.11 63.967 1046.79 59.6951 1042.69 55.0255Z" fill="white"/>
<path d="M856.394 79.2606C859.59 78.4502 862.465 77.904 865.214 76.9806C868.772 75.7839 872.539 74.7688 875.646 72.7924C879.222 70.5179 881.943 71.4524 884.929 73.3246C881.62 84.2843 865.5 87.8351 856.394 79.2606Z" fill="white"/>
<path d="M972.535 71.1669C966.192 73.2303 960.289 72.9182 953.604 71.2745C956.969 67.3675 959.912 63.9504 963.04 60.3191C966.201 63.9317 969.166 67.318 972.535 71.1669Z" fill="white"/>
<path d="M1043.41 58.9468C1045.56 61.5892 1048.1 64.7316 1050.9 68.1871C1044.79 70.4043 1039 69.8176 1033.34 68.6881C1036.65 65.4886 1039.97 62.2737 1043.41 58.9468Z" fill="white"/>
<path d="M197.422 56.7016C197.533 57.251 197.561 57.8344 197.771 58.3432C198.188 59.3551 198.775 60.2978 199.171 61.3163C201.962 68.5163 201.803 68.4229 194.812 71.6202C188.548 74.4835 182.252 76.2701 175.357 74.778C169.649 73.543 165.179 70.2116 161.173 66.2013C160.664 65.6915 160.489 64.7378 160.388 63.961C160.047 61.3383 160.007 58.6629 159.482 56.082C158.698 52.2221 159.172 48.5787 160.992 45.176C162.925 41.5589 163.638 37.854 162.822 33.8305C162.567 32.5823 162.505 31.2891 162.436 30.0113C161.986 21.8169 164.941 18.0087 173.169 17.7472C185.59 17.3539 198.031 17.5396 210.463 17.5725C216.174 17.5879 221.883 17.9033 227.594 17.9197C229.588 17.9252 231.203 18.5317 231.877 20.2765C233.577 24.6813 235.34 29.1026 236.502 33.6635C238.192 40.2932 239.194 47.0559 243.297 52.9C245.484 56.0138 245.433 59.8649 243.669 63.1391C241.564 67.0473 239.109 70.8588 236.256 74.2572C232.672 78.5268 227.666 78.4115 222.756 76.9963C217.382 75.446 212.092 73.6122 206.772 71.8784C203.905 70.9434 202.759 68.7921 202.164 65.9672C201.606 63.3138 200.581 60.7461 199.622 58.1937C199.355 57.4817 198.591 56.9555 198.054 56.3446C197.843 56.4632 197.632 56.583 197.422 56.7016Z" fill="white"/>
<path d="M152.708 62.8702C149.874 60.4782 148.883 62.3516 147.628 64.2689C146.282 66.3246 144.761 68.3298 143.003 70.0427C138.231 74.6969 132.78 74.5585 128.237 69.69C125.172 66.4059 122.32 62.9262 119.371 59.5355C118.713 58.7785 118.05 58.0259 117.129 56.9766C116.499 57.827 116.026 58.5489 115.468 59.2015C112.389 62.8097 109.544 66.6619 106.134 69.9328C101.812 74.0772 96.168 74.8606 91.1344 71.6611C87.5027 69.3527 84.598 65.9038 81.4278 62.902C81.0129 62.5087 80.7561 61.7594 80.7406 61.1671C80.4673 50.4754 79.8377 39.7584 82.5841 29.2402C82.7922 28.447 83.1097 27.6811 83.3897 26.9076C85.0562 22.3072 88.1069 19.6494 93.2744 19.6967C108.839 19.8395 124.406 19.9186 139.972 20.0263C140.432 20.0296 140.908 20.1691 141.349 20.0911C146.409 19.2011 149.055 22.1117 150.891 26.1429C155.608 36.5006 157.39 47.2363 154.716 58.45C154.373 59.8915 153.482 61.2034 152.708 62.8702Z" fill="white"/>
<path d="M247.389 60.2902C247.389 56.3007 246.626 52.1289 247.537 48.3569C249.921 38.5057 252.935 28.7984 255.911 19.0988C257.243 14.7545 259.983 11.2319 263.206 7.93684C268.792 2.22564 273.758 2.79808 280.776 7.20289C282.625 8.36205 284.048 10.4222 285.232 12.334C286.619 14.5754 287.671 17.053 288.623 19.5208C290.847 25.2792 292.798 30.9992 296.414 36.2874C300.294 41.9601 302.829 48.6162 305.422 55.0526C307.487 60.1804 306.683 65.3389 303.279 69.8745C302.018 71.5577 300.664 73.197 299.177 74.6858C289.251 84.6337 277.021 85.3578 266.308 76.302C262.476 73.0641 258.498 70.5678 253.558 69.6283C253.024 69.5273 252.524 69.2515 252.007 69.0581C247.754 67.466 247.368 66.909 247.439 62.4866C247.451 61.7548 247.441 61.022 247.441 60.2902H247.389Z" fill="white"/>
<path d="M37.7156 55.3508C34.375 59.3645 31.5334 63.3155 28.1441 66.7304C22.6545 72.2603 17.633 72.4064 11.9576 67.094C8.77074 64.1132 6.25557 60.4182 3.49033 57.0022C3.11521 56.5396 2.87177 55.8397 2.85628 55.242C2.63829 46.8302 2.15141 38.3886 4.56257 30.1569C6.64286 23.0537 9.43134 21.0166 16.9071 21.0694C32.9498 21.1836 48.9946 21.2583 65.035 21.5275C66.5399 21.5528 68.4808 22.4658 69.439 23.6096C74.4185 29.5482 75.8979 36.835 76.7444 44.258C77.0222 46.7005 76.8396 49.1946 76.8695 51.6657C76.9602 59.3084 73.032 64.6625 66.8542 68.5938C61.4133 72.0548 54.9356 71.4505 49.7482 66.9051C46.2282 63.8209 43.0193 60.3874 39.6631 57.1198C39.018 56.4924 38.3309 55.9068 37.7156 55.3508Z" fill="white"/>
<path d="M224.453 79.509C214.32 87.9009 200.675 84.9024 195.702 73.5744C198.666 71.836 201.169 70.8913 204.963 72.8132C210.295 75.5137 216.315 76.8749 222.044 78.7991C222.702 79.0202 223.376 79.1939 224.453 79.509Z" fill="white"/>
<path d="M127.212 71.3075C120.455 72.8534 114.55 73.3544 108.339 71.1404C111.505 67.4663 114.406 64.0987 117.663 60.3191C120.676 63.7856 123.715 67.2839 127.212 71.3075Z" fill="white"/>
<path d="M29.7002 68.3094C32.5838 64.7814 35.1045 61.6972 37.8012 58.3977C40.9869 61.7412 44.1992 65.1143 47.5708 68.6544C41.7991 70.052 35.9865 70.3904 29.7002 68.3094Z" fill="white"/>
<path d="M224.007 133.386C225.103 132.877 225.248 132.848 225.252 132.803C225.778 127.928 229.552 126.42 233.439 125.151C238.928 123.359 244.405 121.484 249.992 120.051C256.091 118.486 260.938 120.606 264.598 125.768C270.745 134.438 270.991 140.712 265.57 149.751C264.271 151.916 263.401 154.394 262.679 156.83C261.432 161.033 260.459 165.317 259.359 169.564C259.107 170.537 258.841 171.509 258.519 172.46C255.82 180.44 254.7 181.123 246.237 180.826C232.798 180.356 219.356 179.903 205.912 179.624C195.357 179.406 191.33 176.008 188.119 165.48C187.063 162.017 186.33 158.318 186.29 154.718C186.224 148.988 183.683 144.268 180.896 139.684C178.125 135.128 177.517 130.304 177.666 125.209C177.749 122.353 179.727 120.845 181.827 119.477C183.853 118.158 185.867 118.84 187.428 120.219C189.888 122.391 192.07 124.872 194.431 127.161C195.096 127.805 195.972 128.234 196.751 128.762C196.961 127.876 197.425 126.967 197.343 126.11C196.471 116.921 197.792 115.182 207.027 115.531C210.956 115.679 215.06 116.662 218.653 118.238C221.039 119.284 222.9 121.88 224.517 124.123C225.224 125.102 224.846 126.939 224.756 128.373C224.661 129.877 224.321 131.366 224.007 133.386Z" fill="white"/>
<path d="M131.176 127.269C131.746 126.442 132.164 125.433 132.911 124.819C137.499 121.045 141.8 116.75 146.878 113.778C156.091 108.386 164.726 110.916 170.904 119.623C173.486 123.261 174.632 127.098 174.234 131.469C173.126 143.633 169.227 154.811 162.455 165.026C160.525 167.938 158.182 169.059 154.588 168.632C140.784 166.995 126.953 165.57 113.125 164.137C108.956 163.704 105.911 161.488 104.227 157.978C101.784 152.892 99.3231 147.685 97.9421 142.26C96.1252 135.117 95.2211 127.73 94.233 120.405C94.0371 118.952 94.8305 116.949 95.8585 115.816C103.964 106.874 119.538 107.963 126.517 117.873C127.237 118.896 127.59 120.178 128.074 121.355C128.829 123.191 129.55 125.04 130.286 126.882L131.176 127.269Z" fill="white"/>
<path d="M51.8522 115.397C55.693 112.608 59.8326 109.313 64.2598 106.458C70.7243 102.287 76.7317 102.934 82.3086 108.279C88.3437 114.063 91.6534 120.738 89.4989 129.463C87.4463 137.774 84.3203 145.444 78.4789 151.853C76.2669 154.28 73.941 155.515 70.2661 154.515C54.6551 150.265 38.9643 146.301 23.2725 142.351C21.0461 141.789 19.8079 140.638 19.622 138.527C19.2535 134.353 18.7976 130.16 18.8651 125.982C18.9603 120.137 19.5534 114.302 19.82 108.458C19.8997 106.708 20.5614 106.061 22.3175 106.032C24.7962 105.992 27.3456 106.007 29.728 105.438C32.0484 104.882 34.3799 103.896 36.3772 102.599C39.1502 100.796 40.0952 100.565 42.1489 103.062C45.4874 107.123 48.6576 111.318 51.8522 115.397Z" fill="white"/>
<path d="M44.3848 102.323C51.3405 101.118 57.5825 101.958 64.484 103.972C59.9195 107.101 55.9249 109.84 51.9778 112.545C49.5689 109.303 47.1356 106.026 44.3848 102.323Z" fill="white"/>
<path d="M142.595 112.776C138.554 116.478 135.103 119.64 131.635 122.817C129.555 119.58 127.533 116.435 125.357 113.05C130.922 112.006 136.343 111.272 142.595 112.776Z" fill="white"/>
<path d="M239.272 120.457C235.406 122.256 231.851 124.05 228.152 125.469C227.648 125.663 226.126 124.143 225.624 123.146C225.232 122.366 225.292 120.706 225.843 120.23C228.825 117.663 235.537 117.79 239.272 120.457Z" fill="white"/>
<path d="M195.39 124.837C193.412 122.802 191.593 120.933 189.723 119.01C191.465 116.202 192.985 115.542 196.188 116.374C195.928 119.128 195.669 121.877 195.39 124.837Z" fill="white"/>
<path d="M853.32 132.744C853.031 131.162 852.644 129.587 852.486 127.992C852.368 126.814 852.2 125.452 852.655 124.435C855.317 118.477 860.668 116.286 866.627 115.604C869.858 115.233 873.21 115.865 876.503 116.091C878.746 116.244 879.799 117.726 879.925 119.729C880.068 122 879.843 124.291 879.888 126.57C879.901 127.314 880.262 128.051 880.462 128.791C881.198 128.376 882.076 128.101 882.645 127.526C884.895 125.247 886.911 122.724 889.287 120.589C890.92 119.121 893.028 117.991 895.344 119.378C897.763 120.825 899.799 122.561 899.843 125.768C899.91 130.62 899.29 135.297 896.485 139.407C892.477 145.28 891.321 151.899 890.576 158.795C890.152 162.721 888.79 166.624 887.353 170.349C885.135 176.096 880.72 179.219 874.433 179.422C858.222 179.95 842.011 180.503 825.797 180.822C824.405 180.85 822.274 179.537 821.702 178.294C819.802 174.171 818.175 169.874 816.966 165.5C815.139 158.898 813.932 152.163 809.677 146.42C807.534 143.527 807.463 139.908 807.993 136.365C808.711 131.575 811.131 127.633 814.187 124.002C817.158 120.472 821.009 119.058 825.528 119.719C833.795 120.932 841.56 123.767 848.97 127.508C850.057 128.056 850.644 129.649 851.359 130.82C851.764 131.485 851.957 132.276 852.245 133.011C852.604 132.922 852.962 132.833 853.32 132.744Z" fill="white"/>
<path d="M947.282 126.768C947.94 125.182 948.721 123.634 949.234 122.004C951.675 114.238 957.673 111.031 965.136 109.955C972.271 108.928 978.21 111.368 982.693 116.993C983.305 117.763 983.639 119.046 983.538 120.033C982.4 131.068 980.63 141.982 976.317 152.314C975.475 154.333 974.444 156.297 973.29 158.159C971.281 161.401 968.608 163.716 964.537 164.148C953.452 165.323 942.381 166.62 931.304 167.835C928.189 168.177 925.039 168.246 921.948 168.716C919.063 169.155 916.949 168.072 915.697 165.739C912.634 160.031 909.123 154.427 907.067 148.356C904.985 142.202 903.623 135.564 903.385 129.086C902.931 116.746 916.944 107.847 928.406 112.614C934.763 115.259 939.759 119.69 944.375 124.609C945.119 125.401 945.706 126.338 946.364 127.208C946.669 127.062 946.976 126.915 947.282 126.768Z" fill="white"/>
<path d="M1025.65 115.407C1028.78 111.446 1032.22 107.232 1035.48 102.876C1036.93 100.935 1038.66 100.695 1040.14 102.166C1044.11 106.121 1049.16 105.966 1054.08 106.065C1056.68 106.118 1057.52 106.825 1057.59 109.461C1057.8 116.405 1058.49 123.336 1058.69 130.28C1058.78 133.167 1058.22 136.093 1057.76 138.971C1057.44 140.929 1056.21 141.966 1054.1 142.492C1038.04 146.496 1021.99 150.587 1005.99 154.827C1003.64 155.451 1002.06 154.771 1000.5 153.396C995.459 148.959 992.467 143.211 990.16 137.078C988.115 131.64 986.712 126.078 987.677 120.185C988.687 114.015 996.294 105.819 1002.34 104.295C1005.66 103.46 1008.85 103.8 1011.64 105.627C1016.52 108.823 1021.22 112.29 1025.65 115.407Z" fill="white"/>
<path d="M1033.23 102.182C1030.32 106.033 1027.87 109.287 1025.42 112.531C1021.47 109.825 1017.57 107.155 1013.17 104.132C1019.85 101.685 1026.21 101.335 1033.23 102.182Z" fill="white"/>
<path d="M934.939 112.82C941.136 111.192 946.57 112.102 952.183 113.004C950.008 116.353 947.977 119.483 945.818 122.807C942.369 119.641 938.93 116.484 934.939 112.82Z" fill="white"/>
<path d="M838.479 120.389C841.497 117.559 849.727 117.486 852.1 120.309C852.551 120.845 852.246 122.34 851.834 123.169C851.371 124.105 850.06 125.603 849.687 125.454C845.906 123.94 842.242 122.14 838.479 120.389Z" fill="white"/>
<path d="M881.278 116.395C884.537 115.639 885.307 115.937 887.889 118.759C886.034 120.533 884.183 122.302 882.353 124.05C882.039 121.804 881.671 119.193 881.278 116.395Z" fill="white"/>
</svg>
