<svg width="806" height="1676" viewBox="0 0 806 1676" fill="none" xmlns="http://www.w3.org/2000/svg">
<path d="M-358.83 349.752C-505.556 281.599 -560.09 427.561 -569.016 509.062C-595.05 760.084 -429.504 684.324 -389.96 998.739C-350.416 1313.15 -301.611 1214.73 271.985 1286.31C845.58 1357.89 588.303 955.376 482.704 952.294C377.106 949.213 356.082 837.906 401.615 654.945C447.149 471.984 69.9699 318.743 -21.9234 443.465C-113.817 568.186 -175.422 434.943 -358.83 349.752Z" stroke="#59C8F7" stroke-opacity="0.3"/>
<path d="M-322.978 398.038C-455.255 336.677 -504.513 468.296 -512.608 541.776C-536.223 768.094 -386.894 699.703 -351.407 983.135C-315.92 1266.57 -271.854 1177.81 245.364 1242.02C762.583 1306.24 530.796 943.504 435.571 940.784C340.347 938.064 321.448 837.73 362.61 672.76C403.772 507.79 63.7235 369.847 -19.2129 482.337C-102.149 594.828 -157.631 474.739 -322.978 398.038Z" stroke="#59C8F7" stroke-opacity="0.3"/>
<path d="M-295.384 435.627C-416.308 379.459 -461.251 499.753 -468.608 566.921C-490.063 773.799 -353.63 711.362 -321.039 970.485C-288.449 1229.61 -248.227 1148.49 224.498 1207.48C697.223 1266.48 485.189 934.748 398.161 932.208C311.133 929.669 293.806 837.936 331.332 687.15C368.858 536.364 58.0086 410.071 -17.7248 512.86C-93.458 615.648 -144.23 505.836 -295.384 435.627Z" stroke="#59C8F7" stroke-opacity="0.3"/>
<path d="M-268.124 470.346C-378.386 419.174 -419.417 528.878 -426.15 590.127C-445.792 778.773 -321.342 721.792 -291.713 958.057C-262.083 1194.32 -225.372 1120.34 205.731 1173.97C636.833 1227.59 443.578 925.183 364.209 922.898C284.841 920.613 269.071 836.975 303.349 699.47C337.627 561.965 54.1779 446.918 -14.9273 540.671C-84.0325 634.424 -130.297 534.312 -268.124 470.346Z" stroke="#59C8F7" stroke-opacity="0.3"/>
<path d="M-239.767 508.894C-338.492 463.144 -375.311 561.396 -381.379 616.241C-399.088 785.161 -287.588 734.065 -261.197 945.592C-234.806 1157.12 -201.879 1090.86 184.209 1138.6C570.296 1186.35 397.393 915.7 326.307 913.704C255.222 911.708 241.149 836.83 271.936 713.69C302.722 590.551 48.9204 487.717 -13.0326 571.704C-74.9855 655.69 -116.361 566.082 -239.767 508.894Z" stroke="#59C8F7" stroke-opacity="0.3"/>
<path d="M-209.988 549.445C-296.484 509.316 -328.687 595.379 -333.977 643.428C-349.409 791.416 -251.769 746.701 -228.552 932.039C-205.336 1117.38 -176.526 1059.34 161.675 1101.35C499.877 1143.36 348.301 906.161 286.035 904.379C223.769 902.596 211.408 836.987 238.316 729.115C265.224 621.243 42.8671 531.027 -11.3586 604.581C-65.5843 678.136 -101.867 599.607 -209.988 549.445Z" stroke="#59C8F7" stroke-opacity="0.3"/>
</svg>
